<svg width="2000" height="2000" viewBox="0 0 2000 2000" fill="none" xmlns="http://www.w3.org/2000/svg">
<g clip-path="url(#clip0_1_2)">
<path d="M740.036 728.892L769.17 1163.46L666.289 1115.27L641.333 872.463L582.831 834.03L533.667 834.906L493 900.617L501.498 1164.34L560.373 1312.4L627.747 1344.82L743.677 1367.6L775.847 1393.89C775.847 1393.89 809.23 1584.01 809.837 1587.51C810.444 1591.02 817.12 1791.65 817.12 1791.65L981.608 1811.81L1158.41 1791.33L1184.16 1569.54L1220.22 1106.14L1399.62 1107.38L1474.3 1002.06L1503.48 828.59L1507.77 639.015L1478.59 565.911L1421.08 531.218L1357.56 559.716L1324.08 627.864L1302.62 858.328L1239.1 862.045L1246.83 496.524L1222.79 385.01L1073.43 209.064L984.162 188L844.246 227.65L787.592 321.818L745.532 424.659L733.514 608.039L740.036 728.892Z" stroke="#64E8FF" stroke-width="70" stroke-linejoin="round"/>
<path d="M893.332 1799.4C902.078 1799.13 910.824 1798.86 919.57 1798.59C920.2 1771.66 920.758 1744.74 921.243 1717.82C921.942 1679 922.49 1640.19 922.886 1601.39L922.891 1601.57C925.572 1455.41 926.102 1309.29 924.483 1163.23C924.482 1163.16 924.475 1162.94 924.473 1162.87C923.238 1105.66 921.674 1048.46 919.779 991.276C915.984 876.703 910.864 762.174 904.421 647.689L904.419 649.782C905.321 569.621 905.576 489.438 905.184 409.232L904.638 413.526C912.043 372.691 919.278 331.818 926.343 290.907L925.515 293.615C927.385 288.11 929.252 282.603 931.117 277.095C937.132 259.32 943.114 241.533 949.063 223.733L947.826 226.169C951.827 219.053 955.823 211.933 959.813 204.809C952.421 200.126 945.03 195.443 937.639 190.76C932.902 197.411 928.171 204.065 923.445 210.722C923.172 211.207 922.384 212.631 922.208 213.159C914.424 230.237 906.674 247.329 898.957 264.433C896.565 269.733 894.177 275.035 891.792 280.338C891.607 280.881 891.061 282.481 890.963 283.046C880.041 323.101 869.288 363.192 858.705 403.321C858.548 404.188 858.154 406.735 858.159 407.616C852.26 487.605 847.008 567.616 842.404 647.65C842.399 648.07 842.379 649.324 842.403 649.743C843.55 764.404 846.022 879.021 849.818 993.594C851.712 1050.78 853.936 1107.96 856.491 1165.13L856.481 1164.77C861.469 1310.76 868.608 1456.7 877.896 1602.59C877.898 1602.62 877.898 1602.73 877.901 1602.77C880.681 1641.48 883.614 1680.18 886.697 1718.88C888.836 1745.72 891.047 1772.56 893.332 1799.4Z" fill="#64E8FF"/>
<path d="M1063.57 1799.95C1072.32 1800.22 1081.07 1800.49 1089.81 1800.75C1092.1 1773.92 1094.31 1747.08 1096.45 1720.23C1099.53 1681.54 1102.46 1642.83 1105.24 1604.12C1105.25 1604.09 1105.25 1603.98 1105.25 1603.94C1114.54 1458.05 1121.68 1312.11 1126.66 1166.12L1126.65 1166.48C1129.21 1109.32 1131.43 1052.14 1133.33 994.95C1137.12 880.377 1139.59 765.76 1140.74 651.099C1140.77 650.68 1140.74 649.426 1140.74 649.006C1136.14 568.973 1130.88 488.961 1124.99 408.972C1124.99 408.091 1124.6 405.544 1124.44 404.677C1113.86 364.548 1103.1 324.457 1092.18 284.402C1092.08 283.837 1091.54 282.237 1091.35 281.694C1088.97 276.391 1086.58 271.089 1084.19 265.789C1076.47 248.685 1068.72 231.593 1060.94 214.515C1060.76 213.987 1059.97 212.563 1059.7 212.078C1054.97 205.421 1050.24 198.767 1045.51 192.116C1038.11 196.799 1030.72 201.482 1023.33 206.165C1027.32 213.289 1031.32 220.409 1035.32 227.525L1034.08 225.089C1040.03 242.889 1046.01 260.676 1052.03 278.451C1053.89 283.959 1055.76 289.466 1057.63 294.971L1056.8 292.263C1063.87 333.174 1071.1 374.047 1078.51 414.883L1077.96 410.588C1077.57 490.794 1077.82 570.977 1078.72 651.138L1078.72 649.045C1072.28 763.53 1067.16 878.059 1063.37 992.632C1061.47 1049.82 1059.91 1107.02 1058.67 1164.23C1058.67 1164.3 1058.66 1164.51 1058.66 1164.59C1057.04 1310.65 1057.57 1456.76 1060.25 1602.92L1060.26 1602.74C1060.65 1641.55 1061.2 1680.36 1061.9 1719.17C1062.39 1746.09 1062.94 1773.02 1063.57 1799.95Z" fill="#64E8FF"/>
<path d="M45.8 1090.3V1029.1C61.6667 1029.1 80.3667 1024 101.9 1013.8C123.433 1003.6 142.7 987.167 159.7 964.5C176.7 940.7 185.2 910.1 185.2 872.7C185.2 802.433 181.233 742.933 173.3 694.2C166.5 645.467 159.133 600.133 151.2 558.2C144.4 516.267 141 470.933 141 422.2C141 379.133 151.2 342.3 171.6 311.7C192 281.1 218.067 257.3 249.8 240.3C282.667 222.167 317.233 211.4 353.5 208C390.9 204.6 426.033 209.133 458.9 221.6L450.4 262.4C400.533 252.2 362.567 257.3 336.5 277.7C311.567 296.967 294.567 323.6 285.5 357.6C276.433 390.467 271.9 424.467 271.9 459.6C271.9 499.267 275.867 555.367 283.8 627.9C292.867 700.433 294 792.233 287.2 903.3C286.067 933.9 276.433 963.367 258.3 991.7C241.3 1020.03 216.367 1042.7 183.5 1059.7C216.367 1076.7 241.3 1099.37 258.3 1127.7C276.433 1156.03 286.067 1185.5 287.2 1216.1C294 1327.17 292.867 1418.97 283.8 1491.5C275.867 1564.03 271.9 1620.13 271.9 1659.8C271.9 1693.8 276.433 1727.8 285.5 1761.8C294.567 1795.8 311.567 1822.43 336.5 1841.7C362.567 1860.97 400.533 1866.07 450.4 1857L458.9 1897.8C426.033 1910.27 390.9 1914.8 353.5 1911.4C317.233 1908 282.667 1897.23 249.8 1879.1C218.067 1862.1 192 1838.3 171.6 1807.7C151.2 1777.1 141 1740.83 141 1698.9C141 1649.03 144.4 1603.13 151.2 1561.2C159.133 1519.27 166.5 1473.93 173.3 1425.2C181.233 1375.33 185.2 1315.83 185.2 1246.7C185.2 1208.17 176.7 1177.57 159.7 1154.9C142.7 1132.23 123.433 1115.8 101.9 1105.6C80.3667 1095.4 61.6667 1090.3 45.8 1090.3ZM1953.59 1090.3C1938.85 1090.3 1920.15 1095.4 1897.49 1105.6C1875.95 1115.8 1856.69 1132.23 1839.69 1154.9C1822.69 1177.57 1814.19 1208.17 1814.19 1246.7C1814.19 1315.83 1817.59 1375.33 1824.39 1425.2C1832.32 1473.93 1839.69 1519.27 1846.49 1561.2C1854.42 1603.13 1858.39 1649.03 1858.39 1698.9C1858.39 1740.83 1848.19 1777.1 1827.79 1807.7C1807.39 1838.3 1780.75 1862.1 1747.89 1879.1C1716.15 1897.23 1681.59 1908 1644.19 1911.4C1607.92 1914.8 1573.35 1910.27 1540.49 1897.8L1548.99 1857C1598.85 1866.07 1636.25 1860.97 1661.19 1841.7C1687.25 1822.43 1704.82 1795.8 1713.89 1761.8C1722.95 1727.8 1727.49 1693.8 1727.49 1659.8C1727.49 1620.13 1722.95 1564.03 1713.89 1491.5C1705.95 1418.97 1705.39 1327.17 1712.19 1216.1C1713.32 1185.5 1722.39 1156.03 1739.39 1127.7C1757.52 1099.37 1783.02 1076.7 1815.89 1059.7C1783.02 1042.7 1757.52 1020.03 1739.39 991.7C1722.39 963.367 1713.32 933.9 1712.19 903.3C1705.39 792.233 1705.95 700.433 1713.89 627.9C1722.95 555.367 1727.49 499.267 1727.49 459.6C1727.49 424.467 1722.95 390.467 1713.89 357.6C1704.82 323.6 1687.25 296.967 1661.19 277.7C1636.25 257.3 1598.85 252.2 1548.99 262.4L1540.49 221.6C1573.35 209.133 1607.92 204.6 1644.19 208C1681.59 211.4 1716.15 222.167 1747.89 240.3C1780.75 257.3 1807.39 281.1 1827.79 311.7C1848.19 342.3 1858.39 379.133 1858.39 422.2C1858.39 470.933 1854.42 516.267 1846.49 558.2C1839.69 600.133 1832.32 645.467 1824.39 694.2C1817.59 742.933 1814.19 802.433 1814.19 872.7C1814.19 910.1 1822.69 940.7 1839.69 964.5C1856.69 987.167 1875.95 1003.6 1897.49 1013.8C1920.15 1024 1938.85 1029.1 1953.59 1029.1V1090.3Z" fill="#64E8FF"/>
</g>
<defs>
<clipPath id="clip0_1_2">
<rect width="2000" height="2000" fill="white"/>
</clipPath>
</defs>
</svg>
