<svg width="152" height="152" viewBox="0 0 152 152" fill="none" xmlns="http://www.w3.org/2000/svg">
<rect width="152" height="152" fill="#1E1E1E"/>
<rect width="152" height="152" rx="15" fill="black"/>
<path d="M12.1875 39.375C11.2708 36.0417 12.2292 34.375 15.0625 34.375H26.625C28.5833 34.375 29.8958 35.75 30.5625 38.5L42.4375 87.625C43.3125 91.2083 43.875 93.6667 44.125 95C44.4167 96.2917 44.6667 98.3958 44.875 101.312H45.1875C45.3958 98.3958 45.6042 96.1875 45.8125 94.6875C46.0208 93.1875 46.625 90.7083 47.625 87.25L61.5625 39C62.4375 35.9167 64.1875 34.375 66.8125 34.375H78.3125C80.9375 34.375 82.6875 35.9167 83.5625 39L97.5 87.25C98.5 90.7083 99.1042 93.1875 99.3125 94.6875C99.5208 96.1875 99.7292 98.3958 99.9375 101.312H100.25C100.458 98.3958 100.688 96.2917 100.938 95C101.229 93.6667 101.812 91.2083 102.688 87.625L114.562 38.5C115.229 35.75 116.542 34.375 118.5 34.375H130.062C132.896 34.375 133.854 36.0417 132.938 39.375L111.688 117.938C110.604 121.979 108.646 124 105.812 124H94.875C92.4583 124 90.6875 122 89.5625 118L74.5625 65.625C73.7292 62.7917 73.25 60.9583 73.125 60.125C73 59.25 72.8333 57.6458 72.625 55.3125H72.5C72.2917 57.6458 72.125 59.25 72 60.125C71.875 60.9583 71.3958 62.7917 70.5625 65.625L55.5625 118C54.4375 122 52.6667 124 50.25 124H39.3125C36.4792 124 34.5208 121.979 33.4375 117.938L12.1875 39.375Z" fill="white"/>
<mask id="path-3-outside-1_0_1" maskUnits="userSpaceOnUse" x="11" y="20" width="136" height="116" fill="black">
<rect fill="white" x="11" y="20" width="136" height="116"/>
<path d="M138.832 23.856C139.003 23.7707 139.6 23.728 140.624 23.728C141.563 23.728 142.16 23.8133 142.416 23.984C143.44 24.6667 143.867 26.1173 143.696 28.336C143.355 31.92 142.075 34.864 139.856 37.168C139.429 37.68 138.96 38.0213 138.448 38.192C137.936 38.448 137.168 38.576 136.144 38.576C132.731 38.832 129.573 39.5573 126.672 40.752C124.027 41.9467 122.277 43.1413 121.424 44.336C120.827 45.4453 119.333 49.712 116.944 57.136C111.141 75.824 105.637 95.7067 100.432 116.784L98.768 123.568L98.512 124.336C98.0853 126.213 96.464 127.92 93.648 129.456C93.4773 129.541 93.3067 129.627 93.136 129.712C91.6853 130.309 90.2773 130.608 88.912 130.608C87.8027 130.608 86.9067 130.139 86.224 129.2C85.968 128.859 85.584 128.304 85.072 127.536C80.208 120.197 75.984 112.133 72.4 103.344C67.792 91.9947 63.0133 78.64 58.064 63.28L57.296 60.848L56.4 65.072C53.7547 77.7867 50.4267 90.2027 46.416 102.32C43.7707 110 41.4667 115.803 39.504 119.728C38.8213 121.179 38.096 122.501 37.328 123.696C34.3413 128.645 31.184 131.504 27.856 132.272C26.576 132.528 24.912 132.443 22.864 132.016C19.536 131.077 17.104 129.499 15.568 127.28C15.4827 127.109 15.3973 126.939 15.312 126.768C14.2027 124.549 14.5867 121.563 16.464 117.808C17.1467 116.357 17.9147 115.205 18.768 114.352C19.536 113.584 20.3467 113.2 21.2 113.2C21.712 113.2 22.096 113.371 22.352 113.712C23.5467 114.907 24.5707 115.717 25.424 116.144C27.1307 116.997 28.752 117.424 30.288 117.424C30.9707 117.424 31.4827 117.339 31.824 117.168C32.5067 116.741 33.36 115.547 34.384 113.584C36.0907 110.256 37.9253 105.477 39.888 99.248C45.6907 81.4987 49.616 63.7067 51.664 45.872C52.0053 43.3973 52.176 42.1173 52.176 42.032C52.6027 40.24 54.1813 38.576 56.912 37.04C57.68 36.6133 58.448 36.3147 59.216 36.144L61.52 35.76C62.3733 35.76 62.9707 35.888 63.312 36.144C63.824 36.4853 64.08 36.6987 64.08 36.784C64.5067 37.552 64.9333 38.8747 65.36 40.752C70.224 57.7333 75.8133 74.3733 82.128 90.672C84.8587 97.6693 87.248 103.216 89.296 107.312C91.7707 112.261 93.136 114.736 93.392 114.736L93.904 112.944C95.184 107.483 98.4267 95.408 103.632 76.72C110.117 54.448 114.683 40.9653 117.328 36.272C118.181 34.736 119.12 33.4133 120.144 32.304C125.264 27.184 131.493 24.368 138.832 23.856Z"/>
</mask>
<path d="M138.832 23.856C139.003 23.7707 139.6 23.728 140.624 23.728C141.563 23.728 142.16 23.8133 142.416 23.984C143.44 24.6667 143.867 26.1173 143.696 28.336C143.355 31.92 142.075 34.864 139.856 37.168C139.429 37.68 138.96 38.0213 138.448 38.192C137.936 38.448 137.168 38.576 136.144 38.576C132.731 38.832 129.573 39.5573 126.672 40.752C124.027 41.9467 122.277 43.1413 121.424 44.336C120.827 45.4453 119.333 49.712 116.944 57.136C111.141 75.824 105.637 95.7067 100.432 116.784L98.768 123.568L98.512 124.336C98.0853 126.213 96.464 127.92 93.648 129.456C93.4773 129.541 93.3067 129.627 93.136 129.712C91.6853 130.309 90.2773 130.608 88.912 130.608C87.8027 130.608 86.9067 130.139 86.224 129.2C85.968 128.859 85.584 128.304 85.072 127.536C80.208 120.197 75.984 112.133 72.4 103.344C67.792 91.9947 63.0133 78.64 58.064 63.28L57.296 60.848L56.4 65.072C53.7547 77.7867 50.4267 90.2027 46.416 102.32C43.7707 110 41.4667 115.803 39.504 119.728C38.8213 121.179 38.096 122.501 37.328 123.696C34.3413 128.645 31.184 131.504 27.856 132.272C26.576 132.528 24.912 132.443 22.864 132.016C19.536 131.077 17.104 129.499 15.568 127.28C15.4827 127.109 15.3973 126.939 15.312 126.768C14.2027 124.549 14.5867 121.563 16.464 117.808C17.1467 116.357 17.9147 115.205 18.768 114.352C19.536 113.584 20.3467 113.2 21.2 113.2C21.712 113.2 22.096 113.371 22.352 113.712C23.5467 114.907 24.5707 115.717 25.424 116.144C27.1307 116.997 28.752 117.424 30.288 117.424C30.9707 117.424 31.4827 117.339 31.824 117.168C32.5067 116.741 33.36 115.547 34.384 113.584C36.0907 110.256 37.9253 105.477 39.888 99.248C45.6907 81.4987 49.616 63.7067 51.664 45.872C52.0053 43.3973 52.176 42.1173 52.176 42.032C52.6027 40.24 54.1813 38.576 56.912 37.04C57.68 36.6133 58.448 36.3147 59.216 36.144L61.52 35.76C62.3733 35.76 62.9707 35.888 63.312 36.144C63.824 36.4853 64.08 36.6987 64.08 36.784C64.5067 37.552 64.9333 38.8747 65.36 40.752C70.224 57.7333 75.8133 74.3733 82.128 90.672C84.8587 97.6693 87.248 103.216 89.296 107.312C91.7707 112.261 93.136 114.736 93.392 114.736L93.904 112.944C95.184 107.483 98.4267 95.408 103.632 76.72C110.117 54.448 114.683 40.9653 117.328 36.272C118.181 34.736 119.12 33.4133 120.144 32.304C125.264 27.184 131.493 24.368 138.832 23.856Z" fill="#1490F5"/>
<path d="M138.832 23.856L139.041 26.8487L139.638 26.807L140.174 26.5393L138.832 23.856ZM142.416 23.984L144.08 21.4878L144.08 21.4878L142.416 23.984ZM143.696 28.336L146.682 28.6204L146.685 28.5933L146.687 28.5661L143.696 28.336ZM139.856 37.168L137.695 35.0871L137.62 35.1647L137.551 35.2474L139.856 37.168ZM138.448 38.192L137.499 35.3459L137.297 35.4134L137.106 35.5087L138.448 38.192ZM136.144 38.576V35.576H136.032L135.92 35.5844L136.144 38.576ZM126.672 40.752L125.53 37.978L125.483 37.9971L125.437 38.0179L126.672 40.752ZM121.424 44.336L118.983 42.5923L118.873 42.7467L118.783 42.9137L121.424 44.336ZM116.944 57.136L114.088 56.2169L114.084 56.2316L114.079 56.2464L116.944 57.136ZM100.432 116.784L97.5195 116.065L97.5184 116.069L100.432 116.784ZM98.768 123.568L101.614 124.517L101.653 124.401L101.682 124.283L98.768 123.568ZM98.512 124.336L95.666 123.387L95.6193 123.527L95.5866 123.671L98.512 124.336ZM93.648 129.456L94.9897 132.139L95.0376 132.115L95.0846 132.09L93.648 129.456ZM93.136 129.712L94.2783 132.486L94.3796 132.444L94.4776 132.395L93.136 129.712ZM86.224 129.2L88.6502 127.435L88.6372 127.418L88.624 127.4L86.224 129.2ZM85.072 127.536L82.5714 129.193L82.5759 129.2L85.072 127.536ZM72.4 103.344L69.6204 104.473L69.6221 104.477L72.4 103.344ZM58.064 63.28L55.2033 64.1834L55.2059 64.1917L55.2086 64.2001L58.064 63.28ZM57.296 60.848L60.1567 59.9446L56.7256 49.0794L54.3613 60.2255L57.296 60.848ZM56.4 65.072L53.4653 64.4495L53.4629 64.4609L56.4 65.072ZM46.416 102.32L49.2525 103.297L49.2584 103.28L49.2641 103.263L46.416 102.32ZM39.504 119.728L36.8207 118.386L36.8048 118.418L36.7895 118.451L39.504 119.728ZM37.328 123.696L34.8045 122.074L34.7814 122.11L34.7594 122.146L37.328 123.696ZM27.856 132.272L28.4443 135.214L28.4876 135.205L28.5306 135.195L27.856 132.272ZM22.864 132.016L22.0496 134.903L22.15 134.932L22.2521 134.953L22.864 132.016ZM15.568 127.28L12.8847 128.622L12.9801 128.812L13.1014 128.988L15.568 127.28ZM15.312 126.768L12.6287 128.11L15.312 126.768ZM16.464 117.808L19.1473 119.15L19.1633 119.118L19.1785 119.085L16.464 117.808ZM18.768 114.352L16.6467 112.231L16.6467 112.231L18.768 114.352ZM22.352 113.712L19.952 115.512L20.0799 115.683L20.2307 115.833L22.352 113.712ZM25.424 116.144L26.7656 113.461L26.7656 113.461L25.424 116.144ZM31.824 117.168L33.1656 119.851L33.2931 119.788L33.414 119.712L31.824 117.168ZM34.384 113.584L37.0438 114.972L37.0486 114.962L37.0535 114.953L34.384 113.584ZM39.888 99.248L37.0365 98.3158L37.0315 98.3311L37.0267 98.3465L39.888 99.248ZM51.664 45.872L48.6921 45.4621L48.6875 45.4959L48.6836 45.5297L51.664 45.872ZM52.176 42.032L49.2576 41.3371L49.176 41.6798V42.032H52.176ZM56.912 37.04L55.4551 34.4175L55.4481 34.4214L55.4412 34.4253L56.912 37.04ZM59.216 36.144L58.7228 33.1848L58.6436 33.198L58.5652 33.2154L59.216 36.144ZM61.52 35.76V32.76H61.2717L61.0268 32.8008L61.52 35.76ZM63.312 36.144L61.512 38.544L61.5786 38.594L61.6479 38.6401L63.312 36.144ZM64.08 36.784H61.08V37.5614L61.4575 38.2409L64.08 36.784ZM65.36 40.752L62.4346 41.4169L62.4531 41.498L62.476 41.5781L65.36 40.752ZM82.128 90.672L79.3306 91.7558L79.3333 91.7626L82.128 90.672ZM89.296 107.312L91.9793 105.97L91.9793 105.97L89.296 107.312ZM93.392 114.736V117.736H95.6549L96.2766 115.56L93.392 114.736ZM93.904 112.944L96.7886 113.768L96.8084 113.699L96.8249 113.629L93.904 112.944ZM103.632 76.72L100.752 75.8813L100.747 75.8981L100.742 75.915L103.632 76.72ZM117.328 36.272L119.941 37.745L119.946 37.737L119.95 37.7289L117.328 36.272ZM120.144 32.304L118.023 30.1827L117.98 30.2251L117.94 30.2692L120.144 32.304ZM140.174 26.5393C140.054 26.5991 139.951 26.6396 139.878 26.6657C139.803 26.6925 139.741 26.7108 139.696 26.7228C139.61 26.7461 139.55 26.7563 139.533 26.7592C139.501 26.7645 139.522 26.7595 139.622 26.7524C139.817 26.7384 140.141 26.728 140.624 26.728V20.728C140.083 20.728 139.596 20.7389 139.194 20.7676C138.995 20.7818 138.771 20.8035 138.547 20.8408C138.396 20.866 137.955 20.9406 137.49 21.1727L140.174 26.5393ZM140.624 26.728C140.815 26.728 140.971 26.7324 141.098 26.7394C141.225 26.7465 141.307 26.7555 141.352 26.7618C141.401 26.7689 141.375 26.7685 141.298 26.7455C141.257 26.7332 141.189 26.7106 141.102 26.6725C141.016 26.6349 140.893 26.5741 140.752 26.4802L144.08 21.4878C143.369 21.014 142.596 20.8787 142.2 20.8221C141.706 20.7516 141.167 20.728 140.624 20.728V26.728ZM140.752 26.4801C140.553 26.3476 140.564 26.2206 140.626 26.4305C140.7 26.6833 140.774 27.204 140.705 28.1059L146.687 28.5661C146.874 26.1434 146.556 23.1387 144.08 21.4878L140.752 26.4801ZM140.71 28.0516C140.424 31.0502 139.385 33.3325 137.695 35.0871L142.017 39.2489C144.765 36.3955 146.285 32.7898 146.682 28.6204L140.71 28.0516ZM137.551 35.2474C137.474 35.3408 137.427 35.3764 137.419 35.3818C137.415 35.3851 137.442 35.365 137.499 35.3459L139.397 41.038C140.55 40.6537 141.461 39.9286 142.161 39.0886L137.551 35.2474ZM137.106 35.5087C137.195 35.4646 137.182 35.4896 136.995 35.5208C136.815 35.5507 136.539 35.576 136.144 35.576V41.576C137.321 41.576 138.651 41.4447 139.79 40.8753L137.106 35.5087ZM135.92 35.5844C132.219 35.8619 128.749 36.6524 125.53 37.978L127.814 43.526C130.398 42.4623 133.242 41.8021 136.368 41.5676L135.92 35.5844ZM125.437 38.0179C122.696 39.2557 120.321 40.7185 118.983 42.5923L123.865 46.0797C124.233 45.5641 125.357 44.6377 127.907 43.4861L125.437 38.0179ZM118.783 42.9137C118.349 43.7196 117.748 45.3107 117.024 47.3769C116.266 49.5452 115.286 52.4953 114.088 56.2169L119.8 58.0551C120.991 54.3526 121.953 51.4575 122.688 49.359C123.458 47.1587 123.902 46.0618 124.065 45.7583L118.783 42.9137ZM114.079 56.2464C108.257 74.9964 102.737 94.9363 97.5195 116.065L103.345 117.503C108.537 96.4771 114.026 76.6516 119.809 58.0256L114.079 56.2464ZM97.5184 116.069L95.8544 122.853L101.682 124.283L103.346 117.499L97.5184 116.069ZM95.922 122.619L95.666 123.387L101.358 125.285L101.614 124.517L95.922 122.619ZM95.5866 123.671C95.4462 124.289 94.7572 125.434 92.2114 126.822L95.0846 132.09C98.1708 130.406 100.725 128.138 101.437 125.001L95.5866 123.671ZM92.3063 126.773C92.1357 126.858 91.965 126.943 91.7944 127.029L94.4776 132.395C94.6483 132.31 94.819 132.225 94.9897 132.139L92.3063 126.773ZM91.9937 126.938C90.8519 127.408 89.8315 127.608 88.912 127.608V133.608C90.7232 133.608 92.5188 133.211 94.2783 132.486L91.9937 126.938ZM88.912 127.608C88.8472 127.608 88.8137 127.601 88.8037 127.599C88.7948 127.597 88.7959 127.596 88.8 127.599C88.8173 127.608 88.7602 127.587 88.6502 127.435L83.7978 130.965C85.0143 132.637 86.7918 133.608 88.912 133.608V127.608ZM88.624 127.4C88.4213 127.13 88.0762 126.634 87.5682 125.872L82.5759 129.2C83.0918 129.974 83.5147 130.588 83.824 131L88.624 127.4ZM87.5726 125.879C82.8263 118.718 78.6928 110.831 75.1779 102.211L69.6221 104.477C73.2752 113.436 77.5897 121.677 82.5714 129.193L87.5726 125.879ZM75.1796 102.215C70.6066 90.9521 65.8527 77.6701 60.9194 62.3599L55.2086 64.2001C60.174 79.6099 64.9774 93.0372 69.6204 104.473L75.1796 102.215ZM60.9248 62.3766L60.1567 59.9446L54.4353 61.7514L55.2033 64.1834L60.9248 62.3766ZM54.3613 60.2255L53.4653 64.4495L59.3347 65.6945L60.2307 61.4705L54.3613 60.2255ZM53.4629 64.4609C50.8405 77.0654 47.542 89.3706 43.568 101.377L49.2641 103.263C53.3113 91.0347 56.6689 78.5079 59.3371 65.6831L53.4629 64.4609ZM43.5795 101.343C40.9476 108.984 38.6943 114.639 36.8207 118.386L42.1873 121.07C44.239 116.966 46.5937 111.016 49.2525 103.297L43.5795 101.343ZM36.7895 118.451C36.1559 119.797 35.493 121.003 34.8045 122.074L39.8515 125.318C40.699 124 41.4868 122.56 42.2185 121.005L36.7895 118.451ZM34.7594 122.146C31.9182 126.854 29.3188 128.856 27.1814 129.349L28.5306 135.195C33.0492 134.152 36.7645 130.436 39.8966 125.246L34.7594 122.146ZM27.2677 129.33C26.5511 129.474 25.3388 129.467 23.4759 129.079L22.2521 134.953C24.4852 135.418 26.6009 135.582 28.4443 135.214L27.2677 129.33ZM23.6784 129.129C20.829 128.325 19.0731 127.072 18.0346 125.572L13.1014 128.988C15.1349 131.925 18.243 133.83 22.0496 134.903L23.6784 129.129ZM18.2513 125.938C18.2511 125.938 18.2509 125.938 18.2508 125.937C18.2506 125.937 18.2504 125.937 18.2503 125.936C18.2501 125.936 18.2499 125.936 18.2498 125.935C18.2496 125.935 18.2494 125.935 18.2493 125.934C18.2491 125.934 18.2489 125.934 18.2488 125.933C18.2486 125.933 18.2484 125.933 18.2483 125.932C18.2481 125.932 18.2479 125.932 18.2478 125.931C18.2476 125.931 18.2474 125.931 18.2473 125.93C18.2471 125.93 18.2469 125.93 18.2468 125.929C18.2466 125.929 18.2464 125.929 18.2463 125.928C18.2461 125.928 18.2459 125.928 18.2458 125.927C18.2456 125.927 18.2454 125.927 18.2453 125.926C18.2451 125.926 18.2449 125.926 18.2448 125.925C18.2446 125.925 18.2444 125.925 18.2443 125.924C18.2441 125.924 18.2439 125.924 18.2438 125.923C18.2436 125.923 18.2434 125.923 18.2433 125.922C18.2431 125.922 18.2429 125.922 18.2428 125.921C18.2426 125.921 18.2424 125.921 18.2423 125.92C18.2421 125.92 18.2419 125.92 18.2418 125.919C18.2416 125.919 18.2414 125.919 18.2413 125.918C18.2411 125.918 18.2409 125.918 18.2408 125.917C18.2406 125.917 18.2404 125.917 18.2403 125.916C18.2401 125.916 18.2399 125.916 18.2398 125.915C18.2396 125.915 18.2394 125.915 18.2393 125.914C18.2391 125.914 18.2389 125.914 18.2388 125.913C18.2386 125.913 18.2384 125.913 18.2383 125.912C18.2381 125.912 18.2379 125.912 18.2378 125.911C18.2376 125.911 18.2374 125.911 18.2373 125.91C18.2371 125.91 18.2369 125.91 18.2368 125.909C18.2366 125.909 18.2364 125.909 18.2363 125.908C18.2361 125.908 18.2359 125.908 18.2358 125.907C18.2356 125.907 18.2354 125.907 18.2353 125.906C18.2351 125.906 18.2349 125.906 18.2348 125.905C18.2346 125.905 18.2344 125.905 18.2343 125.904C18.2341 125.904 18.2339 125.904 18.2338 125.903C18.2336 125.903 18.2334 125.903 18.2333 125.902C18.2331 125.902 18.2329 125.902 18.2328 125.901C18.2326 125.901 18.2324 125.901 18.2323 125.9C18.2321 125.9 18.2319 125.9 18.2318 125.899C18.2316 125.899 18.2314 125.899 18.2313 125.898C18.2311 125.898 18.2309 125.898 18.2308 125.897C18.2306 125.897 18.2304 125.897 18.2303 125.896C18.2301 125.896 18.2299 125.896 18.2298 125.895C18.2296 125.895 18.2294 125.895 18.2293 125.894C18.2291 125.894 18.2289 125.894 18.2288 125.893C18.2286 125.893 18.2284 125.893 18.2283 125.892C18.2281 125.892 18.2279 125.892 18.2278 125.891C18.2276 125.891 18.2274 125.891 18.2273 125.89C18.2271 125.89 18.2269 125.89 18.2268 125.889C18.2266 125.889 18.2264 125.889 18.2263 125.888C18.2261 125.888 18.2259 125.888 18.2258 125.887C18.2256 125.887 18.2254 125.887 18.2253 125.886C18.2251 125.886 18.2249 125.886 18.2248 125.885C18.2246 125.885 18.2244 125.885 18.2243 125.884C18.2241 125.884 18.2239 125.884 18.2238 125.883C18.2236 125.883 18.2234 125.883 18.2233 125.882C18.2231 125.882 18.2229 125.882 18.2228 125.881C18.2226 125.881 18.2224 125.881 18.2223 125.88C18.2221 125.88 18.2219 125.88 18.2218 125.879C18.2216 125.879 18.2214 125.879 18.2213 125.878C18.2211 125.878 18.2209 125.878 18.2208 125.877C18.2206 125.877 18.2204 125.877 18.2203 125.876C18.2201 125.876 18.2199 125.876 18.2198 125.875C18.2196 125.875 18.2194 125.875 18.2193 125.874C18.2191 125.874 18.2189 125.874 18.2188 125.873C18.2186 125.873 18.2184 125.873 18.2183 125.872C18.2181 125.872 18.2179 125.872 18.2178 125.871C18.2176 125.871 18.2174 125.871 18.2173 125.87C18.2171 125.87 18.2169 125.87 18.2168 125.869C18.2166 125.869 18.2164 125.869 18.2163 125.868C18.2161 125.868 18.2159 125.868 18.2158 125.867C18.2156 125.867 18.2154 125.867 18.2153 125.866C18.2151 125.866 18.2149 125.866 18.2148 125.865C18.2146 125.865 18.2144 125.865 18.2143 125.864C18.2141 125.864 18.2139 125.864 18.2138 125.863C18.2136 125.863 18.2134 125.863 18.2133 125.862C18.2131 125.862 18.2129 125.862 18.2128 125.861C18.2126 125.861 18.2124 125.861 18.2123 125.86C18.2121 125.86 18.2119 125.86 18.2118 125.859C18.2116 125.859 18.2114 125.859 18.2113 125.858C18.2111 125.858 18.2109 125.858 18.2108 125.857C18.2106 125.857 18.2104 125.857 18.2103 125.856C18.2101 125.856 18.2099 125.856 18.2098 125.855C18.2096 125.855 18.2094 125.855 18.2093 125.854C18.2091 125.854 18.2089 125.854 18.2088 125.853C18.2086 125.853 18.2084 125.853 18.2083 125.852C18.2081 125.852 18.2079 125.852 18.2078 125.851C18.2076 125.851 18.2074 125.851 18.2073 125.85C18.2071 125.85 18.2069 125.85 18.2068 125.849C18.2066 125.849 18.2064 125.849 18.2063 125.848C18.2061 125.848 18.2059 125.848 18.2058 125.847C18.2056 125.847 18.2054 125.847 18.2053 125.846C18.2051 125.846 18.2049 125.846 18.2048 125.845C18.2046 125.845 18.2044 125.845 18.2043 125.844C18.2041 125.844 18.2039 125.844 18.2038 125.843C18.2036 125.843 18.2034 125.843 18.2033 125.842C18.2031 125.842 18.2029 125.842 18.2028 125.841C18.2026 125.841 18.2024 125.841 18.2023 125.84C18.2021 125.84 18.2019 125.84 18.2018 125.839C18.2016 125.839 18.2014 125.839 18.2013 125.838C18.2011 125.838 18.2009 125.838 18.2008 125.837C18.2006 125.837 18.2004 125.837 18.2003 125.836C18.2001 125.836 18.1999 125.836 18.1998 125.835C18.1996 125.835 18.1994 125.835 18.1993 125.834C18.1991 125.834 18.1989 125.834 18.1988 125.833C18.1986 125.833 18.1984 125.833 18.1983 125.832C18.1981 125.832 18.1979 125.832 18.1978 125.831C18.1976 125.831 18.1974 125.831 18.1973 125.83C18.1971 125.83 18.1969 125.83 18.1968 125.829C18.1966 125.829 18.1964 125.829 18.1963 125.828C18.1961 125.828 18.1959 125.828 18.1958 125.827C18.1956 125.827 18.1954 125.827 18.1953 125.826C18.1951 125.826 18.1949 125.826 18.1948 125.825C18.1946 125.825 18.1944 125.825 18.1943 125.824C18.1941 125.824 18.1939 125.824 18.1938 125.823C18.1936 125.823 18.1934 125.823 18.1933 125.822C18.1931 125.822 18.1929 125.822 18.1928 125.821C18.1926 125.821 18.1924 125.821 18.1923 125.82C18.1921 125.82 18.1919 125.82 18.1918 125.819C18.1916 125.819 18.1914 125.819 18.1913 125.818C18.1911 125.818 18.1909 125.818 18.1908 125.817C18.1906 125.817 18.1904 125.817 18.1903 125.816C18.1901 125.816 18.1899 125.816 18.1898 125.815C18.1896 125.815 18.1894 125.815 18.1893 125.814C18.1891 125.814 18.1889 125.814 18.1888 125.813C18.1886 125.813 18.1884 125.813 18.1883 125.812C18.1881 125.812 18.1879 125.812 18.1878 125.811C18.1876 125.811 18.1874 125.811 18.1873 125.81C18.1871 125.81 18.1869 125.81 18.1868 125.809C18.1866 125.809 18.1864 125.809 18.1863 125.808C18.1861 125.808 18.1859 125.808 18.1858 125.807C18.1856 125.807 18.1854 125.807 18.1853 125.806C18.1851 125.806 18.1849 125.806 18.1848 125.805C18.1846 125.805 18.1844 125.805 18.1843 125.804C18.1841 125.804 18.1839 125.804 18.1838 125.803C18.1836 125.803 18.1834 125.803 18.1833 125.802C18.1831 125.802 18.1829 125.802 18.1828 125.801C18.1826 125.801 18.1824 125.801 18.1823 125.8C18.1821 125.8 18.1819 125.8 18.1818 125.799C18.1816 125.799 18.1814 125.799 18.1813 125.798C18.1811 125.798 18.1809 125.798 18.1808 125.797C18.1806 125.797 18.1804 125.797 18.1803 125.796C18.1801 125.796 18.1799 125.796 18.1798 125.795C18.1796 125.795 18.1794 125.795 18.1793 125.794C18.1791 125.794 18.1789 125.794 18.1788 125.793C18.1786 125.793 18.1784 125.793 18.1783 125.792C18.1781 125.792 18.1779 125.792 18.1778 125.791C18.1776 125.791 18.1774 125.791 18.1773 125.79C18.1771 125.79 18.1769 125.79 18.1768 125.789C18.1766 125.789 18.1764 125.789 18.1763 125.788C18.1761 125.788 18.1759 125.788 18.1758 125.787C18.1756 125.787 18.1754 125.787 18.1753 125.786C18.1751 125.786 18.1749 125.786 18.1748 125.785C18.1746 125.785 18.1744 125.785 18.1743 125.784C18.1741 125.784 18.1739 125.784 18.1738 125.783C18.1736 125.783 18.1734 125.783 18.1733 125.782C18.1731 125.782 18.1729 125.782 18.1728 125.781C18.1726 125.781 18.1724 125.781 18.1723 125.78C18.1721 125.78 18.1719 125.78 18.1718 125.779C18.1716 125.779 18.1714 125.779 18.1713 125.778C18.1711 125.778 18.1709 125.778 18.1708 125.777C18.1706 125.777 18.1704 125.777 18.1703 125.776C18.1701 125.776 18.1699 125.776 18.1698 125.775C18.1696 125.775 18.1694 125.775 18.1693 125.774C18.1691 125.774 18.1689 125.774 18.1688 125.773C18.1686 125.773 18.1684 125.773 18.1683 125.772C18.1681 125.772 18.1679 125.772 18.1678 125.771C18.1676 125.771 18.1674 125.771 18.1673 125.77C18.1671 125.77 18.1669 125.77 18.1668 125.769C18.1666 125.769 18.1664 125.769 18.1663 125.768C18.1661 125.768 18.1659 125.768 18.1658 125.767C18.1656 125.767 18.1654 125.767 18.1653 125.766C18.1651 125.766 18.1649 125.766 18.1648 125.765C18.1646 125.765 18.1644 125.765 18.1643 125.764C18.1641 125.764 18.1639 125.764 18.1638 125.763C18.1636 125.763 18.1634 125.763 18.1633 125.762C18.1631 125.762 18.1629 125.762 18.1628 125.761C18.1626 125.761 18.1624 125.761 18.1623 125.76C18.1621 125.76 18.1619 125.76 18.1618 125.759C18.1616 125.759 18.1614 125.759 18.1613 125.758C18.1611 125.758 18.1609 125.758 18.1608 125.757C18.1606 125.757 18.1604 125.757 18.1603 125.756C18.1601 125.756 18.1599 125.756 18.1598 125.755C18.1596 125.755 18.1594 125.755 18.1593 125.754C18.1591 125.754 18.1589 125.754 18.1588 125.753C18.1586 125.753 18.1584 125.753 18.1583 125.752C18.1581 125.752 18.1579 125.752 18.1578 125.751C18.1576 125.751 18.1574 125.751 18.1573 125.75C18.1571 125.75 18.1569 125.75 18.1568 125.749C18.1566 125.749 18.1564 125.749 18.1563 125.748C18.1561 125.748 18.1559 125.748 18.1558 125.747C18.1556 125.747 18.1554 125.747 18.1553 125.746C18.1551 125.746 18.1549 125.746 18.1548 125.745C18.1546 125.745 18.1544 125.745 18.1543 125.744C18.1541 125.744 18.1539 125.744 18.1538 125.743C18.1536 125.743 18.1534 125.743 18.1533 125.742C18.1531 125.742 18.1529 125.742 18.1528 125.741C18.1526 125.741 18.1524 125.741 18.1523 125.74C18.1521 125.74 18.1519 125.74 18.1518 125.739C18.1516 125.739 18.1514 125.739 18.1513 125.738C18.1511 125.738 18.1509 125.738 18.1508 125.737C18.1506 125.737 18.1504 125.737 18.1503 125.736C18.1501 125.736 18.1499 125.736 18.1498 125.735C18.1496 125.735 18.1494 125.735 18.1493 125.734C18.1491 125.734 18.1489 125.734 18.1488 125.733C18.1486 125.733 18.1484 125.733 18.1483 125.732C18.1481 125.732 18.1479 125.732 18.1478 125.731C18.1476 125.731 18.1474 125.731 18.1473 125.73C18.1471 125.73 18.1469 125.73 18.1468 125.729C18.1466 125.729 18.1464 125.729 18.1463 125.728C18.1461 125.728 18.1459 125.728 18.1458 125.727C18.1456 125.727 18.1454 125.727 18.1453 125.726C18.1451 125.726 18.1449 125.726 18.1448 125.725C18.1446 125.725 18.1444 125.725 18.1443 125.724C18.1441 125.724 18.1439 125.724 18.1438 125.723C18.1436 125.723 18.1434 125.723 18.1433 125.722C18.1431 125.722 18.1429 125.722 18.1428 125.721C18.1426 125.721 18.1424 125.721 18.1423 125.72C18.1421 125.72 18.1419 125.72 18.1418 125.719C18.1416 125.719 18.1414 125.719 18.1413 125.718C18.1411 125.718 18.1409 125.718 18.1408 125.717C18.1406 125.717 18.1404 125.717 18.1403 125.716C18.1401 125.716 18.1399 125.716 18.1398 125.715C18.1396 125.715 18.1394 125.715 18.1393 125.714C18.1391 125.714 18.1389 125.714 18.1388 125.713C18.1386 125.713 18.1384 125.713 18.1383 125.712C18.1381 125.712 18.1379 125.712 18.1378 125.711C18.1376 125.711 18.1374 125.711 18.1373 125.71C18.1371 125.71 18.1369 125.71 18.1368 125.709C18.1366 125.709 18.1364 125.709 18.1363 125.708C18.1361 125.708 18.1359 125.708 18.1358 125.707C18.1356 125.707 18.1354 125.707 18.1353 125.706C18.1351 125.706 18.1349 125.706 18.1348 125.705C18.1346 125.705 18.1344 125.705 18.1343 125.704C18.1341 125.704 18.1339 125.704 18.1338 125.703C18.1336 125.703 18.1334 125.703 18.1333 125.702C18.1331 125.702 18.1329 125.702 18.1328 125.701C18.1326 125.701 18.1324 125.701 18.1323 125.7C18.1321 125.7 18.1319 125.7 18.1318 125.699C18.1316 125.699 18.1314 125.699 18.1313 125.698C18.1311 125.698 18.1309 125.698 18.1308 125.697C18.1306 125.697 18.1304 125.697 18.1303 125.696C18.1301 125.696 18.1299 125.696 18.1298 125.695C18.1296 125.695 18.1294 125.695 18.1293 125.694C18.1291 125.694 18.1289 125.694 18.1288 125.693C18.1286 125.693 18.1284 125.693 18.1283 125.692C18.1281 125.692 18.1279 125.692 18.1278 125.691C18.1276 125.691 18.1274 125.691 18.1273 125.69C18.1271 125.69 18.1269 125.69 18.1268 125.689C18.1266 125.689 18.1264 125.689 18.1263 125.688C18.1261 125.688 18.1259 125.688 18.1258 125.687C18.1256 125.687 18.1254 125.687 18.1253 125.686C18.1251 125.686 18.1249 125.686 18.1248 125.685C18.1246 125.685 18.1244 125.685 18.1243 125.684C18.1241 125.684 18.1239 125.684 18.1238 125.683C18.1236 125.683 18.1234 125.683 18.1233 125.682C18.1231 125.682 18.1229 125.682 18.1228 125.681C18.1226 125.681 18.1224 125.681 18.1223 125.68C18.1221 125.68 18.1219 125.68 18.1218 125.679C18.1216 125.679 18.1214 125.679 18.1213 125.678C18.1211 125.678 18.1209 125.678 18.1208 125.677C18.1206 125.677 18.1204 125.677 18.1203 125.676C18.1201 125.676 18.1199 125.676 18.1198 125.675C18.1196 125.675 18.1194 125.675 18.1193 125.674C18.1191 125.674 18.1189 125.674 18.1188 125.673C18.1186 125.673 18.1184 125.673 18.1183 125.672C18.1181 125.672 18.1179 125.672 18.1178 125.671C18.1176 125.671 18.1174 125.671 18.1173 125.67C18.1171 125.67 18.1169 125.67 18.1168 125.669C18.1166 125.669 18.1164 125.669 18.1163 125.668C18.1161 125.668 18.1159 125.668 18.1158 125.667C18.1156 125.667 18.1154 125.667 18.1153 125.666C18.1151 125.666 18.1149 125.666 18.1148 125.665C18.1146 125.665 18.1144 125.665 18.1143 125.664C18.1141 125.664 18.1139 125.664 18.1138 125.663C18.1136 125.663 18.1134 125.663 18.1133 125.662C18.1131 125.662 18.1129 125.662 18.1128 125.661C18.1126 125.661 18.1124 125.661 18.1123 125.66C18.1121 125.66 18.1119 125.66 18.1118 125.659C18.1116 125.659 18.1114 125.659 18.1113 125.658C18.1111 125.658 18.1109 125.658 18.1108 125.657C18.1106 125.657 18.1104 125.657 18.1103 125.656C18.1101 125.656 18.1099 125.656 18.1098 125.655C18.1096 125.655 18.1094 125.655 18.1093 125.654C18.1091 125.654 18.1089 125.654 18.1088 125.653C18.1086 125.653 18.1084 125.653 18.1083 125.652C18.1081 125.652 18.1079 125.652 18.1078 125.651C18.1076 125.651 18.1074 125.651 18.1073 125.65C18.1071 125.65 18.1069 125.65 18.1068 125.649C18.1066 125.649 18.1064 125.649 18.1063 125.648C18.1061 125.648 18.1059 125.648 18.1058 125.647C18.1056 125.647 18.1054 125.647 18.1053 125.646C18.1051 125.646 18.1049 125.646 18.1048 125.645C18.1046 125.645 18.1044 125.645 18.1043 125.644C18.1041 125.644 18.1039 125.644 18.1038 125.643C18.1036 125.643 18.1034 125.643 18.1033 125.642C18.1031 125.642 18.1029 125.642 18.1028 125.641C18.1026 125.641 18.1024 125.641 18.1023 125.64C18.1021 125.64 18.1019 125.64 18.1018 125.639C18.1016 125.639 18.1014 125.639 18.1013 125.638C18.1011 125.638 18.1009 125.638 18.1008 125.637C18.1006 125.637 18.1004 125.637 18.1003 125.636C18.1001 125.636 18.0999 125.636 18.0998 125.635C18.0996 125.635 18.0994 125.635 18.0993 125.634C18.0991 125.634 18.0989 125.634 18.0988 125.633C18.0986 125.633 18.0984 125.633 18.0983 125.632C18.0981 125.632 18.0979 125.632 18.0978 125.631C18.0976 125.631 18.0974 125.631 18.0973 125.63C18.0971 125.63 18.0969 125.63 18.0968 125.629C18.0966 125.629 18.0964 125.629 18.0963 125.628C18.0961 125.628 18.0959 125.628 18.0958 125.627C18.0956 125.627 18.0954 125.627 18.0953 125.626C18.0951 125.626 18.0949 125.626 18.0948 125.625C18.0946 125.625 18.0944 125.625 18.0943 125.624C18.0941 125.624 18.0939 125.624 18.0938 125.623C18.0936 125.623 18.0934 125.623 18.0933 125.622C18.0931 125.622 18.0929 125.622 18.0928 125.621C18.0926 125.621 18.0924 125.621 18.0923 125.62C18.0921 125.62 18.0919 125.62 18.0918 125.619C18.0916 125.619 18.0914 125.619 18.0913 125.618C18.0911 125.618 18.0909 125.618 18.0908 125.617C18.0906 125.617 18.0904 125.617 18.0903 125.616C18.0901 125.616 18.0899 125.616 18.0898 125.615C18.0896 125.615 18.0894 125.615 18.0893 125.614C18.0891 125.614 18.0889 125.614 18.0888 125.613C18.0886 125.613 18.0884 125.613 18.0883 125.612C18.0881 125.612 18.0879 125.612 18.0878 125.611C18.0876 125.611 18.0874 125.611 18.0873 125.61C18.0871 125.61 18.0869 125.61 18.0868 125.609C18.0866 125.609 18.0864 125.609 18.0863 125.608C18.0861 125.608 18.0859 125.608 18.0858 125.607C18.0856 125.607 18.0854 125.607 18.0853 125.606C18.0851 125.606 18.0849 125.606 18.0848 125.605C18.0846 125.605 18.0844 125.605 18.0843 125.604C18.0841 125.604 18.0839 125.604 18.0838 125.603C18.0836 125.603 18.0834 125.603 18.0833 125.602C18.0831 125.602 18.0829 125.602 18.0828 125.601C18.0826 125.601 18.0824 125.601 18.0823 125.6C18.0821 125.6 18.0819 125.6 18.0818 125.599C18.0816 125.599 18.0814 125.599 18.0813 125.598C18.0811 125.598 18.0809 125.598 18.0808 125.597C18.0806 125.597 18.0804 125.597 18.0803 125.596C18.0801 125.596 18.0799 125.596 18.0798 125.595C18.0796 125.595 18.0794 125.595 18.0793 125.594C18.0791 125.594 18.0789 125.594 18.0788 125.593C18.0786 125.593 18.0784 125.593 18.0783 125.592C18.0781 125.592 18.0779 125.592 18.0778 125.591C18.0776 125.591 18.0774 125.591 18.0773 125.59C18.0771 125.59 18.0769 125.59 18.0768 125.589C18.0766 125.589 18.0764 125.589 18.0763 125.588C18.0761 125.588 18.0759 125.588 18.0758 125.587C18.0756 125.587 18.0754 125.587 18.0753 125.586C18.0751 125.586 18.0749 125.586 18.0748 125.585C18.0746 125.585 18.0744 125.585 18.0743 125.584C18.0741 125.584 18.0739 125.584 18.0738 125.583C18.0736 125.583 18.0734 125.583 18.0733 125.582C18.0731 125.582 18.0729 125.582 18.0728 125.581C18.0726 125.581 18.0724 125.581 18.0723 125.58C18.0721 125.58 18.0719 125.58 18.0718 125.579C18.0716 125.579 18.0714 125.579 18.0713 125.578C18.0711 125.578 18.0709 125.578 18.0708 125.577C18.0706 125.577 18.0704 125.577 18.0703 125.576C18.0701 125.576 18.0699 125.576 18.0698 125.575C18.0696 125.575 18.0694 125.575 18.0693 125.574C18.0691 125.574 18.0689 125.574 18.0688 125.573C18.0686 125.573 18.0684 125.573 18.0683 125.572C18.0681 125.572 18.0679 125.572 18.0678 125.571C18.0676 125.571 18.0674 125.571 18.0673 125.57C18.0671 125.57 18.0669 125.57 18.0668 125.569C18.0666 125.569 18.0664 125.569 18.0663 125.568C18.0661 125.568 18.0659 125.568 18.0658 125.567C18.0656 125.567 18.0654 125.567 18.0653 125.566C18.0651 125.566 18.0649 125.566 18.0648 125.565C18.0646 125.565 18.0644 125.565 18.0643 125.564C18.0641 125.564 18.0639 125.564 18.0638 125.563C18.0636 125.563 18.0634 125.563 18.0633 125.562C18.0631 125.562 18.0629 125.562 18.0628 125.561C18.0626 125.561 18.0624 125.561 18.0623 125.56C18.0621 125.56 18.0619 125.56 18.0618 125.559C18.0616 125.559 18.0614 125.559 18.0613 125.558C18.0611 125.558 18.0609 125.558 18.0608 125.557C18.0606 125.557 18.0604 125.557 18.0603 125.556C18.0601 125.556 18.0599 125.556 18.0598 125.555C18.0596 125.555 18.0594 125.555 18.0593 125.554C18.0591 125.554 18.0589 125.554 18.0588 125.553C18.0586 125.553 18.0584 125.553 18.0583 125.552C18.0581 125.552 18.0579 125.552 18.0578 125.551C18.0576 125.551 18.0574 125.551 18.0573 125.55C18.0571 125.55 18.0569 125.55 18.0568 125.549C18.0566 125.549 18.0564 125.549 18.0563 125.548C18.0561 125.548 18.0559 125.548 18.0558 125.547C18.0556 125.547 18.0554 125.547 18.0553 125.546C18.0551 125.546 18.0549 125.546 18.0548 125.545C18.0546 125.545 18.0544 125.545 18.0543 125.544C18.0541 125.544 18.0539 125.544 18.0538 125.543C18.0536 125.543 18.0534 125.543 18.0533 125.542C18.0531 125.542 18.0529 125.542 18.0528 125.541C18.0526 125.541 18.0524 125.541 18.0523 125.54C18.0521 125.54 18.0519 125.54 18.0518 125.539C18.0516 125.539 18.0514 125.539 18.0513 125.538C18.0511 125.538 18.0509 125.538 18.0508 125.537C18.0506 125.537 18.0504 125.537 18.0503 125.536C18.0501 125.536 18.0499 125.536 18.0498 125.535C18.0496 125.535 18.0494 125.535 18.0493 125.534C18.0491 125.534 18.0489 125.534 18.0488 125.533C18.0486 125.533 18.0484 125.533 18.0483 125.532C18.0481 125.532 18.0479 125.532 18.0478 125.531C18.0476 125.531 18.0474 125.531 18.0473 125.53C18.0471 125.53 18.0469 125.53 18.0468 125.529C18.0466 125.529 18.0464 125.529 18.0463 125.528C18.0461 125.528 18.0459 125.528 18.0458 125.527C18.0456 125.527 18.0454 125.527 18.0453 125.526C18.0451 125.526 18.0449 125.526 18.0448 125.525C18.0446 125.525 18.0444 125.525 18.0443 125.524C18.0441 125.524 18.0439 125.524 18.0438 125.523C18.0436 125.523 18.0434 125.523 18.0433 125.522C18.0431 125.522 18.0429 125.522 18.0428 125.521C18.0426 125.521 18.0424 125.521 18.0423 125.52C18.0421 125.52 18.0419 125.52 18.0418 125.519C18.0416 125.519 18.0414 125.519 18.0413 125.518C18.0411 125.518 18.0409 125.518 18.0408 125.517C18.0406 125.517 18.0404 125.517 18.0403 125.516C18.0401 125.516 18.0399 125.516 18.0398 125.515C18.0396 125.515 18.0394 125.515 18.0393 125.514C18.0391 125.514 18.0389 125.514 18.0388 125.513C18.0386 125.513 18.0384 125.513 18.0383 125.512C18.0381 125.512 18.0379 125.512 18.0378 125.511C18.0376 125.511 18.0374 125.511 18.0373 125.51C18.0371 125.51 18.0369 125.51 18.0368 125.509C18.0366 125.509 18.0364 125.509 18.0363 125.508C18.0361 125.508 18.0359 125.508 18.0358 125.507C18.0356 125.507 18.0354 125.507 18.0353 125.506C18.0351 125.506 18.0349 125.506 18.0348 125.505C18.0346 125.505 18.0344 125.505 18.0343 125.504C18.0341 125.504 18.0339 125.504 18.0338 125.503C18.0336 125.503 18.0334 125.503 18.0333 125.502C18.0331 125.502 18.0329 125.502 18.0328 125.501C18.0326 125.501 18.0324 125.501 18.0323 125.5C18.0321 125.5 18.0319 125.5 18.0318 125.499C18.0316 125.499 18.0314 125.499 18.0313 125.498C18.0311 125.498 18.0309 125.498 18.0308 125.497C18.0306 125.497 18.0304 125.497 18.0303 125.496C18.0301 125.496 18.0299 125.496 18.0298 125.495C18.0296 125.495 18.0294 125.495 18.0293 125.494C18.0291 125.494 18.0289 125.494 18.0288 125.493C18.0286 125.493 18.0284 125.493 18.0283 125.492C18.0281 125.492 18.0279 125.492 18.0278 125.491C18.0276 125.491 18.0274 125.491 18.0273 125.49C18.0271 125.49 18.0269 125.49 18.0268 125.489C18.0266 125.489 18.0264 125.489 18.0263 125.488C18.0261 125.488 18.0259 125.488 18.0258 125.487C18.0256 125.487 18.0254 125.487 18.0253 125.486C18.0251 125.486 18.0249 125.486 18.0248 125.485C18.0246 125.485 18.0244 125.485 18.0243 125.484C18.0241 125.484 18.0239 125.484 18.0238 125.483C18.0236 125.483 18.0234 125.483 18.0233 125.482C18.0231 125.482 18.0229 125.482 18.0228 125.481C18.0226 125.481 18.0224 125.481 18.0223 125.48C18.0221 125.48 18.0219 125.48 18.0218 125.479C18.0216 125.479 18.0214 125.479 18.0213 125.478C18.0211 125.478 18.0209 125.478 18.0208 125.477C18.0206 125.477 18.0204 125.477 18.0203 125.476C18.0201 125.476 18.0199 125.476 18.0198 125.475C18.0196 125.475 18.0194 125.475 18.0193 125.474C18.0191 125.474 18.0189 125.474 18.0188 125.473C18.0186 125.473 18.0184 125.473 18.0183 125.472C18.0181 125.472 18.0179 125.472 18.0178 125.471C18.0176 125.471 18.0174 125.471 18.0173 125.47C18.0171 125.47 18.0169 125.47 18.0168 125.469C18.0166 125.469 18.0164 125.469 18.0163 125.468C18.0161 125.468 18.0159 125.468 18.0158 125.467C18.0156 125.467 18.0154 125.467 18.0153 125.466C18.0151 125.466 18.0149 125.466 18.0148 125.465C18.0146 125.465 18.0144 125.465 18.0143 125.464C18.0141 125.464 18.0139 125.464 18.0138 125.463C18.0136 125.463 18.0134 125.463 18.0133 125.462C18.0131 125.462 18.0129 125.462 18.0128 125.461C18.0126 125.461 18.0124 125.461 18.0123 125.46C18.0121 125.46 18.0119 125.46 18.0118 125.459C18.0116 125.459 18.0114 125.459 18.0113 125.458C18.0111 125.458 18.0109 125.458 18.0108 125.457C18.0106 125.457 18.0104 125.457 18.0103 125.456C18.0101 125.456 18.0099 125.456 18.0098 125.455C18.0096 125.455 18.0094 125.455 18.0093 125.454C18.0091 125.454 18.0089 125.454 18.0088 125.453C18.0086 125.453 18.0084 125.453 18.0083 125.452C18.0081 125.452 18.0079 125.452 18.0078 125.451C18.0076 125.451 18.0074 125.451 18.0073 125.45C18.0071 125.45 18.0069 125.45 18.0068 125.449C18.0066 125.449 18.0064 125.449 18.0063 125.448C18.0061 125.448 18.0059 125.448 18.0058 125.447C18.0056 125.447 18.0054 125.447 18.0053 125.446C18.0051 125.446 18.0049 125.446 18.0048 125.445C18.0046 125.445 18.0044 125.445 18.0043 125.444C18.0041 125.444 18.0039 125.444 18.0038 125.443C18.0036 125.443 18.0034 125.443 18.0033 125.442C18.0031 125.442 18.0029 125.442 18.0028 125.441C18.0026 125.441 18.0024 125.441 18.0023 125.44C18.0021 125.44 18.0019 125.44 18.0018 125.439C18.0016 125.439 18.0014 125.439 18.0013 125.438C18.0011 125.438 18.0009 125.438 18.0008 125.437C18.0006 125.437 18.0004 125.437 18.0003 125.436C18.0001 125.436 17.9999 125.436 17.9998 125.435C17.9996 125.435 17.9994 125.435 17.9993 125.434C17.9991 125.434 17.9989 125.434 17.9988 125.433C17.9986 125.433 17.9984 125.433 17.9983 125.432C17.9981 125.432 17.9979 125.432 17.9978 125.431C17.9976 125.431 17.9974 125.431 17.9973 125.43C17.9971 125.43 17.9969 125.43 17.9968 125.429C17.9966 125.429 17.9964 125.429 17.9963 125.428C17.9961 125.428 17.9959 125.428 17.9958 125.427C17.9956 125.427 17.9954 125.427 17.9953 125.426L12.6287 128.11C12.6289 128.11 12.6291 128.11 12.6292 128.111C12.6294 128.111 12.6296 128.111 12.6297 128.112C12.6299 128.112 12.6301 128.112 12.6302 128.113C12.6304 128.113 12.6306 128.113 12.6307 128.114C12.6309 128.114 12.6311 128.114 12.6312 128.115C12.6314 128.115 12.6316 128.115 12.6317 128.116C12.6319 128.116 12.6321 128.116 12.6322 128.117C12.6324 128.117 12.6326 128.117 12.6327 128.118C12.6329 128.118 12.6331 128.118 12.6332 128.119C12.6334 128.119 12.6336 128.119 12.6337 128.12C12.6339 128.12 12.6341 128.12 12.6342 128.121C12.6344 128.121 12.6346 128.121 12.6347 128.122C12.6349 128.122 12.6351 128.122 12.6352 128.123C12.6354 128.123 12.6356 128.123 12.6357 128.124C12.6359 128.124 12.6361 128.124 12.6362 128.125C12.6364 128.125 12.6366 128.125 12.6367 128.126C12.6369 128.126 12.6371 128.126 12.6372 128.127C12.6374 128.127 12.6376 128.127 12.6377 128.128C12.6379 128.128 12.6381 128.128 12.6382 128.129C12.6384 128.129 12.6386 128.129 12.6387 128.13C12.6389 128.13 12.6391 128.13 12.6392 128.131C12.6394 128.131 12.6396 128.131 12.6397 128.132C12.6399 128.132 12.6401 128.132 12.6402 128.133C12.6404 128.133 12.6406 128.133 12.6407 128.134C12.6409 128.134 12.6411 128.134 12.6412 128.135C12.6414 128.135 12.6416 128.135 12.6417 128.136C12.6419 128.136 12.6421 128.136 12.6422 128.137C12.6424 128.137 12.6426 128.137 12.6427 128.138C12.6429 128.138 12.6431 128.138 12.6432 128.139C12.6434 128.139 12.6436 128.139 12.6437 128.14C12.6439 128.14 12.6441 128.14 12.6442 128.141C12.6444 128.141 12.6446 128.141 12.6447 128.142C12.6449 128.142 12.6451 128.142 12.6452 128.143C12.6454 128.143 12.6456 128.143 12.6457 128.144C12.6459 128.144 12.6461 128.144 12.6462 128.145C12.6464 128.145 12.6466 128.145 12.6467 128.146C12.6469 128.146 12.6471 128.146 12.6472 128.147C12.6474 128.147 12.6476 128.147 12.6477 128.148C12.6479 128.148 12.6481 128.148 12.6482 128.149C12.6484 128.149 12.6486 128.149 12.6487 128.15C12.6489 128.15 12.6491 128.15 12.6492 128.151C12.6494 128.151 12.6496 128.151 12.6497 128.152C12.6499 128.152 12.6501 128.152 12.6502 128.153C12.6504 128.153 12.6506 128.153 12.6507 128.154C12.6509 128.154 12.6511 128.154 12.6512 128.155C12.6514 128.155 12.6516 128.155 12.6517 128.156C12.6519 128.156 12.6521 128.156 12.6522 128.157C12.6524 128.157 12.6526 128.157 12.6527 128.158C12.6529 128.158 12.6531 128.158 12.6532 128.159C12.6534 128.159 12.6536 128.159 12.6537 128.16C12.6539 128.16 12.6541 128.16 12.6542 128.161C12.6544 128.161 12.6546 128.161 12.6547 128.162C12.6549 128.162 12.6551 128.162 12.6552 128.163C12.6554 128.163 12.6556 128.163 12.6557 128.164C12.6559 128.164 12.6561 128.164 12.6562 128.165C12.6564 128.165 12.6566 128.165 12.6567 128.166C12.6569 128.166 12.6571 128.166 12.6572 128.167C12.6574 128.167 12.6576 128.167 12.6577 128.168C12.6579 128.168 12.6581 128.168 12.6582 128.169C12.6584 128.169 12.6586 128.169 12.6587 128.17C12.6589 128.17 12.6591 128.17 12.6592 128.171C12.6594 128.171 12.6596 128.171 12.6597 128.172C12.6599 128.172 12.6601 128.172 12.6602 128.173C12.6604 128.173 12.6606 128.173 12.6607 128.174C12.6609 128.174 12.6611 128.174 12.6612 128.175C12.6614 128.175 12.6616 128.175 12.6617 128.176C12.6619 128.176 12.6621 128.176 12.6622 128.177C12.6624 128.177 12.6626 128.177 12.6627 128.178C12.6629 128.178 12.6631 128.178 12.6632 128.179C12.6634 128.179 12.6636 128.179 12.6637 128.18C12.6639 128.18 12.6641 128.18 12.6642 128.181C12.6644 128.181 12.6646 128.181 12.6647 128.182C12.6649 128.182 12.6651 128.182 12.6652 128.183C12.6654 128.183 12.6656 128.183 12.6657 128.184C12.6659 128.184 12.6661 128.184 12.6662 128.185C12.6664 128.185 12.6666 128.185 12.6667 128.186C12.6669 128.186 12.6671 128.186 12.6672 128.187C12.6674 128.187 12.6676 128.187 12.6677 128.188C12.6679 128.188 12.6681 128.188 12.6682 128.189C12.6684 128.189 12.6686 128.189 12.6687 128.19C12.6689 128.19 12.6691 128.19 12.6692 128.191C12.6694 128.191 12.6696 128.191 12.6697 128.192C12.6699 128.192 12.6701 128.192 12.6702 128.193C12.6704 128.193 12.6706 128.193 12.6707 128.194C12.6709 128.194 12.6711 128.194 12.6712 128.195C12.6714 128.195 12.6716 128.195 12.6717 128.196C12.6719 128.196 12.6721 128.196 12.6722 128.197C12.6724 128.197 12.6726 128.197 12.6727 128.198C12.6729 128.198 12.6731 128.198 12.6732 128.199C12.6734 128.199 12.6736 128.199 12.6737 128.2C12.6739 128.2 12.6741 128.2 12.6742 128.201C12.6744 128.201 12.6746 128.201 12.6747 128.202C12.6749 128.202 12.6751 128.202 12.6752 128.203C12.6754 128.203 12.6756 128.203 12.6757 128.204C12.6759 128.204 12.6761 128.204 12.6762 128.205C12.6764 128.205 12.6766 128.205 12.6767 128.206C12.6769 128.206 12.6771 128.206 12.6772 128.207C12.6774 128.207 12.6776 128.207 12.6777 128.208C12.6779 128.208 12.6781 128.208 12.6782 128.209C12.6784 128.209 12.6786 128.209 12.6787 128.21C12.6789 128.21 12.6791 128.21 12.6792 128.211C12.6794 128.211 12.6796 128.211 12.6797 128.212C12.6799 128.212 12.6801 128.212 12.6802 128.213C12.6804 128.213 12.6806 128.213 12.6807 128.214C12.6809 128.214 12.6811 128.214 12.6812 128.215C12.6814 128.215 12.6816 128.215 12.6817 128.216C12.6819 128.216 12.6821 128.216 12.6822 128.217C12.6824 128.217 12.6826 128.217 12.6827 128.218C12.6829 128.218 12.6831 128.218 12.6832 128.219C12.6834 128.219 12.6836 128.219 12.6837 128.22C12.6839 128.22 12.6841 128.22 12.6842 128.221C12.6844 128.221 12.6846 128.221 12.6847 128.222C12.6849 128.222 12.6851 128.222 12.6852 128.223C12.6854 128.223 12.6856 128.223 12.6857 128.224C12.6859 128.224 12.6861 128.224 12.6862 128.225C12.6864 128.225 12.6866 128.225 12.6867 128.226C12.6869 128.226 12.6871 128.226 12.6872 128.227C12.6874 128.227 12.6876 128.227 12.6877 128.228C12.6879 128.228 12.6881 128.228 12.6882 128.229C12.6884 128.229 12.6886 128.229 12.6887 128.23C12.6889 128.23 12.6891 128.23 12.6892 128.231C12.6894 128.231 12.6896 128.231 12.6897 128.232C12.6899 128.232 12.6901 128.232 12.6902 128.233C12.6904 128.233 12.6906 128.233 12.6907 128.234C12.6909 128.234 12.6911 128.234 12.6912 128.235C12.6914 128.235 12.6916 128.235 12.6917 128.236C12.6919 128.236 12.6921 128.236 12.6922 128.237C12.6924 128.237 12.6926 128.237 12.6927 128.238C12.6929 128.238 12.6931 128.238 12.6932 128.239C12.6934 128.239 12.6936 128.239 12.6937 128.24C12.6939 128.24 12.6941 128.24 12.6942 128.241C12.6944 128.241 12.6946 128.241 12.6947 128.242C12.6949 128.242 12.6951 128.242 12.6952 128.243C12.6954 128.243 12.6956 128.243 12.6957 128.244C12.6959 128.244 12.6961 128.244 12.6962 128.245C12.6964 128.245 12.6966 128.245 12.6967 128.246C12.6969 128.246 12.6971 128.246 12.6972 128.247C12.6974 128.247 12.6976 128.247 12.6977 128.248C12.6979 128.248 12.6981 128.248 12.6982 128.249C12.6984 128.249 12.6986 128.249 12.6987 128.25C12.6989 128.25 12.6991 128.25 12.6992 128.251C12.6994 128.251 12.6996 128.251 12.6997 128.252C12.6999 128.252 12.7001 128.252 12.7002 128.253C12.7004 128.253 12.7006 128.253 12.7007 128.254C12.7009 128.254 12.7011 128.254 12.7012 128.255C12.7014 128.255 12.7016 128.255 12.7017 128.256C12.7019 128.256 12.7021 128.256 12.7022 128.257C12.7024 128.257 12.7026 128.257 12.7027 128.258C12.7029 128.258 12.7031 128.258 12.7032 128.259C12.7034 128.259 12.7036 128.259 12.7037 128.26C12.7039 128.26 12.7041 128.26 12.7042 128.261C12.7044 128.261 12.7046 128.261 12.7047 128.262C12.7049 128.262 12.7051 128.262 12.7052 128.263C12.7054 128.263 12.7056 128.263 12.7057 128.264C12.7059 128.264 12.7061 128.264 12.7062 128.265C12.7064 128.265 12.7066 128.265 12.7067 128.266C12.7069 128.266 12.7071 128.266 12.7072 128.267C12.7074 128.267 12.7076 128.267 12.7077 128.268C12.7079 128.268 12.7081 128.268 12.7082 128.269C12.7084 128.269 12.7086 128.269 12.7087 128.27C12.7089 128.27 12.7091 128.27 12.7092 128.271C12.7094 128.271 12.7096 128.271 12.7097 128.272C12.7099 128.272 12.7101 128.272 12.7102 128.273C12.7104 128.273 12.7106 128.273 12.7107 128.274C12.7109 128.274 12.7111 128.274 12.7112 128.275C12.7114 128.275 12.7116 128.275 12.7117 128.276C12.7119 128.276 12.7121 128.276 12.7122 128.277C12.7124 128.277 12.7126 128.277 12.7127 128.278C12.7129 128.278 12.7131 128.278 12.7132 128.279C12.7134 128.279 12.7136 128.279 12.7137 128.28C12.7139 128.28 12.7141 128.28 12.7142 128.281C12.7144 128.281 12.7146 128.281 12.7147 128.282C12.7149 128.282 12.7151 128.282 12.7152 128.283C12.7154 128.283 12.7156 128.283 12.7157 128.284C12.7159 128.284 12.7161 128.284 12.7162 128.285C12.7164 128.285 12.7166 128.285 12.7167 128.286C12.7169 128.286 12.7171 128.286 12.7172 128.287C12.7174 128.287 12.7176 128.287 12.7177 128.288C12.7179 128.288 12.7181 128.288 12.7182 128.289C12.7184 128.289 12.7186 128.289 12.7187 128.29C12.7189 128.29 12.7191 128.29 12.7192 128.291C12.7194 128.291 12.7196 128.291 12.7197 128.292C12.7199 128.292 12.7201 128.292 12.7202 128.293C12.7204 128.293 12.7206 128.293 12.7207 128.294C12.7209 128.294 12.7211 128.294 12.7212 128.295C12.7214 128.295 12.7216 128.295 12.7217 128.296C12.7219 128.296 12.7221 128.296 12.7222 128.297C12.7224 128.297 12.7226 128.297 12.7227 128.298C12.7229 128.298 12.7231 128.298 12.7232 128.299C12.7234 128.299 12.7236 128.299 12.7237 128.3C12.7239 128.3 12.7241 128.3 12.7242 128.301C12.7244 128.301 12.7246 128.301 12.7247 128.302C12.7249 128.302 12.7251 128.302 12.7252 128.303C12.7254 128.303 12.7256 128.303 12.7257 128.304C12.7259 128.304 12.7261 128.304 12.7262 128.305C12.7264 128.305 12.7266 128.305 12.7267 128.306C12.7269 128.306 12.7271 128.306 12.7272 128.307C12.7274 128.307 12.7276 128.307 12.7277 128.308C12.7279 128.308 12.7281 128.308 12.7282 128.309C12.7284 128.309 12.7286 128.309 12.7287 128.31C12.7289 128.31 12.7291 128.31 12.7292 128.311C12.7294 128.311 12.7296 128.311 12.7297 128.312C12.7299 128.312 12.7301 128.312 12.7302 128.313C12.7304 128.313 12.7306 128.313 12.7307 128.314C12.7309 128.314 12.7311 128.314 12.7312 128.315C12.7314 128.315 12.7316 128.315 12.7317 128.316C12.7319 128.316 12.7321 128.316 12.7322 128.317C12.7324 128.317 12.7326 128.317 12.7327 128.318C12.7329 128.318 12.7331 128.318 12.7332 128.319C12.7334 128.319 12.7336 128.319 12.7337 128.32C12.7339 128.32 12.7341 128.32 12.7342 128.321C12.7344 128.321 12.7346 128.321 12.7347 128.322C12.7349 128.322 12.7351 128.322 12.7352 128.323C12.7354 128.323 12.7356 128.323 12.7357 128.324C12.7359 128.324 12.7361 128.324 12.7362 128.325C12.7364 128.325 12.7366 128.325 12.7367 128.326C12.7369 128.326 12.7371 128.326 12.7372 128.327C12.7374 128.327 12.7376 128.327 12.7377 128.328C12.7379 128.328 12.7381 128.328 12.7382 128.329C12.7384 128.329 12.7386 128.329 12.7387 128.33C12.7389 128.33 12.7391 128.33 12.7392 128.331C12.7394 128.331 12.7396 128.331 12.7397 128.332C12.7399 128.332 12.7401 128.332 12.7402 128.333C12.7404 128.333 12.7406 128.333 12.7407 128.334C12.7409 128.334 12.7411 128.334 12.7412 128.335C12.7414 128.335 12.7416 128.335 12.7417 128.336C12.7419 128.336 12.7421 128.336 12.7422 128.337C12.7424 128.337 12.7426 128.337 12.7427 128.338C12.7429 128.338 12.7431 128.338 12.7432 128.339C12.7434 128.339 12.7436 128.339 12.7437 128.34C12.7439 128.34 12.7441 128.34 12.7442 128.341C12.7444 128.341 12.7446 128.341 12.7447 128.342C12.7449 128.342 12.7451 128.342 12.7452 128.343C12.7454 128.343 12.7456 128.343 12.7457 128.344C12.7459 128.344 12.7461 128.344 12.7462 128.345C12.7464 128.345 12.7466 128.345 12.7467 128.346C12.7469 128.346 12.7471 128.346 12.7472 128.347C12.7474 128.347 12.7476 128.347 12.7477 128.348C12.7479 128.348 12.7481 128.348 12.7482 128.349C12.7484 128.349 12.7486 128.349 12.7487 128.35C12.7489 128.35 12.7491 128.35 12.7492 128.351C12.7494 128.351 12.7496 128.351 12.7497 128.352C12.7499 128.352 12.7501 128.352 12.7502 128.353C12.7504 128.353 12.7506 128.353 12.7507 128.354C12.7509 128.354 12.7511 128.354 12.7512 128.355C12.7514 128.355 12.7516 128.355 12.7517 128.356C12.7519 128.356 12.7521 128.356 12.7522 128.357C12.7524 128.357 12.7526 128.357 12.7527 128.358C12.7529 128.358 12.7531 128.358 12.7532 128.359C12.7534 128.359 12.7536 128.359 12.7537 128.36C12.7539 128.36 12.7541 128.36 12.7542 128.361C12.7544 128.361 12.7546 128.361 12.7547 128.362C12.7549 128.362 12.7551 128.362 12.7552 128.363C12.7554 128.363 12.7556 128.363 12.7557 128.364C12.7559 128.364 12.7561 128.364 12.7562 128.365C12.7564 128.365 12.7566 128.365 12.7567 128.366C12.7569 128.366 12.7571 128.366 12.7572 128.367C12.7574 128.367 12.7576 128.367 12.7577 128.368C12.7579 128.368 12.7581 128.368 12.7582 128.369C12.7584 128.369 12.7586 128.369 12.7587 128.37C12.7589 128.37 12.7591 128.37 12.7592 128.371C12.7594 128.371 12.7596 128.371 12.7597 128.372C12.7599 128.372 12.7601 128.372 12.7602 128.373C12.7604 128.373 12.7606 128.373 12.7607 128.374C12.7609 128.374 12.7611 128.374 12.7612 128.375C12.7614 128.375 12.7616 128.375 12.7617 128.376C12.7619 128.376 12.7621 128.376 12.7622 128.377C12.7624 128.377 12.7626 128.377 12.7627 128.378C12.7629 128.378 12.7631 128.378 12.7632 128.379C12.7634 128.379 12.7636 128.379 12.7637 128.38C12.7639 128.38 12.7641 128.38 12.7642 128.381C12.7644 128.381 12.7646 128.381 12.7647 128.382C12.7649 128.382 12.7651 128.382 12.7652 128.383C12.7654 128.383 12.7656 128.383 12.7657 128.384C12.7659 128.384 12.7661 128.384 12.7662 128.385C12.7664 128.385 12.7666 128.385 12.7667 128.386C12.7669 128.386 12.7671 128.386 12.7672 128.387C12.7674 128.387 12.7676 128.387 12.7677 128.388C12.7679 128.388 12.7681 128.388 12.7682 128.389C12.7684 128.389 12.7686 128.389 12.7687 128.39C12.7689 128.39 12.7691 128.39 12.7692 128.391C12.7694 128.391 12.7696 128.391 12.7697 128.392C12.7699 128.392 12.7701 128.392 12.7702 128.393C12.7704 128.393 12.7706 128.393 12.7707 128.394C12.7709 128.394 12.7711 128.394 12.7712 128.395C12.7714 128.395 12.7716 128.395 12.7717 128.396C12.7719 128.396 12.7721 128.396 12.7722 128.397C12.7724 128.397 12.7726 128.397 12.7727 128.398C12.7729 128.398 12.7731 128.398 12.7732 128.399C12.7734 128.399 12.7736 128.399 12.7737 128.4C12.7739 128.4 12.7741 128.4 12.7742 128.401C12.7744 128.401 12.7746 128.401 12.7747 128.402C12.7749 128.402 12.7751 128.402 12.7752 128.403C12.7754 128.403 12.7756 128.403 12.7757 128.404C12.7759 128.404 12.7761 128.404 12.7762 128.405C12.7764 128.405 12.7766 128.405 12.7767 128.406C12.7769 128.406 12.7771 128.406 12.7772 128.407C12.7774 128.407 12.7776 128.407 12.7777 128.408C12.7779 128.408 12.7781 128.408 12.7782 128.409C12.7784 128.409 12.7786 128.409 12.7787 128.41C12.7789 128.41 12.7791 128.41 12.7792 128.411C12.7794 128.411 12.7796 128.411 12.7797 128.412C12.7799 128.412 12.7801 128.412 12.7802 128.413C12.7804 128.413 12.7806 128.413 12.7807 128.414C12.7809 128.414 12.7811 128.414 12.7812 128.415C12.7814 128.415 12.7816 128.415 12.7817 128.416C12.7819 128.416 12.7821 128.416 12.7822 128.417C12.7824 128.417 12.7826 128.417 12.7827 128.418C12.7829 128.418 12.7831 128.418 12.7832 128.419C12.7834 128.419 12.7836 128.419 12.7837 128.42C12.7839 128.42 12.7841 128.42 12.7842 128.421C12.7844 128.421 12.7846 128.421 12.7847 128.422C12.7849 128.422 12.7851 128.422 12.7852 128.423C12.7854 128.423 12.7856 128.423 12.7857 128.424C12.7859 128.424 12.7861 128.424 12.7862 128.425C12.7864 128.425 12.7866 128.425 12.7867 128.426C12.7869 128.426 12.7871 128.426 12.7872 128.427C12.7874 128.427 12.7876 128.427 12.7877 128.428C12.7879 128.428 12.7881 128.428 12.7882 128.429C12.7884 128.429 12.7886 128.429 12.7887 128.43C12.7889 128.43 12.7891 128.43 12.7892 128.431C12.7894 128.431 12.7896 128.431 12.7897 128.432C12.7899 128.432 12.7901 128.432 12.7902 128.433C12.7904 128.433 12.7906 128.433 12.7907 128.434C12.7909 128.434 12.7911 128.434 12.7912 128.435C12.7914 128.435 12.7916 128.435 12.7917 128.436C12.7919 128.436 12.7921 128.436 12.7922 128.437C12.7924 128.437 12.7926 128.437 12.7927 128.438C12.7929 128.438 12.7931 128.438 12.7932 128.439C12.7934 128.439 12.7936 128.439 12.7937 128.44C12.7939 128.44 12.7941 128.44 12.7942 128.441C12.7944 128.441 12.7946 128.441 12.7947 128.442C12.7949 128.442 12.7951 128.442 12.7952 128.443C12.7954 128.443 12.7956 128.443 12.7957 128.444C12.7959 128.444 12.7961 128.444 12.7962 128.445C12.7964 128.445 12.7966 128.445 12.7967 128.446C12.7969 128.446 12.7971 128.446 12.7972 128.447C12.7974 128.447 12.7976 128.447 12.7977 128.448C12.7979 128.448 12.7981 128.448 12.7982 128.449C12.7984 128.449 12.7986 128.449 12.7987 128.45C12.7989 128.45 12.7991 128.45 12.7992 128.451C12.7994 128.451 12.7996 128.451 12.7997 128.452C12.7999 128.452 12.8001 128.452 12.8002 128.453C12.8004 128.453 12.8006 128.453 12.8007 128.454C12.8009 128.454 12.8011 128.454 12.8012 128.455C12.8014 128.455 12.8016 128.455 12.8017 128.456C12.8019 128.456 12.8021 128.456 12.8022 128.457C12.8024 128.457 12.8026 128.457 12.8027 128.458C12.8029 128.458 12.8031 128.458 12.8032 128.459C12.8034 128.459 12.8036 128.459 12.8037 128.46C12.8039 128.46 12.8041 128.46 12.8042 128.461C12.8044 128.461 12.8046 128.461 12.8047 128.462C12.8049 128.462 12.8051 128.462 12.8052 128.463C12.8054 128.463 12.8056 128.463 12.8057 128.464C12.8059 128.464 12.8061 128.464 12.8062 128.465C12.8064 128.465 12.8066 128.465 12.8067 128.466C12.8069 128.466 12.8071 128.466 12.8072 128.467C12.8074 128.467 12.8076 128.467 12.8077 128.468C12.8079 128.468 12.8081 128.468 12.8082 128.469C12.8084 128.469 12.8086 128.469 12.8087 128.47C12.8089 128.47 12.8091 128.47 12.8092 128.471C12.8094 128.471 12.8096 128.471 12.8097 128.472C12.8099 128.472 12.8101 128.472 12.8102 128.473C12.8104 128.473 12.8106 128.473 12.8107 128.474C12.8109 128.474 12.8111 128.474 12.8112 128.475C12.8114 128.475 12.8116 128.475 12.8117 128.476C12.8119 128.476 12.8121 128.476 12.8122 128.477C12.8124 128.477 12.8126 128.477 12.8127 128.478C12.8129 128.478 12.8131 128.478 12.8132 128.479C12.8134 128.479 12.8136 128.479 12.8137 128.48C12.8139 128.48 12.8141 128.48 12.8142 128.481C12.8144 128.481 12.8146 128.481 12.8147 128.482C12.8149 128.482 12.8151 128.482 12.8152 128.483C12.8154 128.483 12.8156 128.483 12.8157 128.484C12.8159 128.484 12.8161 128.484 12.8162 128.485C12.8164 128.485 12.8166 128.485 12.8167 128.486C12.8169 128.486 12.8171 128.486 12.8172 128.487C12.8174 128.487 12.8176 128.487 12.8177 128.488C12.8179 128.488 12.8181 128.488 12.8182 128.489C12.8184 128.489 12.8186 128.489 12.8187 128.49C12.8189 128.49 12.8191 128.49 12.8192 128.491C12.8194 128.491 12.8196 128.491 12.8197 128.492C12.8199 128.492 12.8201 128.492 12.8202 128.493C12.8204 128.493 12.8206 128.493 12.8207 128.494C12.8209 128.494 12.8211 128.494 12.8212 128.495C12.8214 128.495 12.8216 128.495 12.8217 128.496C12.8219 128.496 12.8221 128.496 12.8222 128.497C12.8224 128.497 12.8226 128.497 12.8227 128.498C12.8229 128.498 12.8231 128.498 12.8232 128.499C12.8234 128.499 12.8236 128.499 12.8237 128.5C12.8239 128.5 12.8241 128.5 12.8242 128.501C12.8244 128.501 12.8246 128.501 12.8247 128.502C12.8249 128.502 12.8251 128.502 12.8252 128.503C12.8254 128.503 12.8256 128.503 12.8257 128.504C12.8259 128.504 12.8261 128.504 12.8262 128.505C12.8264 128.505 12.8266 128.505 12.8267 128.506C12.8269 128.506 12.8271 128.506 12.8272 128.507C12.8274 128.507 12.8276 128.507 12.8277 128.508C12.8279 128.508 12.8281 128.508 12.8282 128.509C12.8284 128.509 12.8286 128.509 12.8287 128.51C12.8289 128.51 12.8291 128.51 12.8292 128.511C12.8294 128.511 12.8296 128.511 12.8297 128.512C12.8299 128.512 12.8301 128.512 12.8302 128.513C12.8304 128.513 12.8306 128.513 12.8307 128.514C12.8309 128.514 12.8311 128.514 12.8312 128.515C12.8314 128.515 12.8316 128.515 12.8317 128.516C12.8319 128.516 12.8321 128.516 12.8322 128.517C12.8324 128.517 12.8326 128.517 12.8327 128.518C12.8329 128.518 12.8331 128.518 12.8332 128.519C12.8334 128.519 12.8336 128.519 12.8337 128.52C12.8339 128.52 12.8341 128.52 12.8342 128.521C12.8344 128.521 12.8346 128.521 12.8347 128.522C12.8349 128.522 12.8351 128.522 12.8352 128.523C12.8354 128.523 12.8356 128.523 12.8357 128.524C12.8359 128.524 12.8361 128.524 12.8362 128.525C12.8364 128.525 12.8366 128.525 12.8367 128.526C12.8369 128.526 12.8371 128.526 12.8372 128.527C12.8374 128.527 12.8376 128.527 12.8377 128.528C12.8379 128.528 12.8381 128.528 12.8382 128.529C12.8384 128.529 12.8386 128.529 12.8387 128.53C12.8389 128.53 12.8391 128.53 12.8392 128.531C12.8394 128.531 12.8396 128.531 12.8397 128.532C12.8399 128.532 12.8401 128.532 12.8402 128.533C12.8404 128.533 12.8406 128.533 12.8407 128.534C12.8409 128.534 12.8411 128.534 12.8412 128.535C12.8414 128.535 12.8416 128.535 12.8417 128.536C12.8419 128.536 12.8421 128.536 12.8422 128.537C12.8424 128.537 12.8426 128.537 12.8427 128.538C12.8429 128.538 12.8431 128.538 12.8432 128.539C12.8434 128.539 12.8436 128.539 12.8437 128.54C12.8439 128.54 12.8441 128.54 12.8442 128.541C12.8444 128.541 12.8446 128.541 12.8447 128.542C12.8449 128.542 12.8451 128.542 12.8452 128.543C12.8454 128.543 12.8456 128.543 12.8457 128.544C12.8459 128.544 12.8461 128.544 12.8462 128.545C12.8464 128.545 12.8466 128.545 12.8467 128.546C12.8469 128.546 12.8471 128.546 12.8472 128.547C12.8474 128.547 12.8476 128.547 12.8477 128.548C12.8479 128.548 12.8481 128.548 12.8482 128.549C12.8484 128.549 12.8486 128.549 12.8487 128.55C12.8489 128.55 12.8491 128.55 12.8492 128.551C12.8494 128.551 12.8496 128.551 12.8497 128.552C12.8499 128.552 12.8501 128.552 12.8502 128.553C12.8504 128.553 12.8506 128.553 12.8507 128.554C12.8509 128.554 12.8511 128.554 12.8512 128.555C12.8514 128.555 12.8516 128.555 12.8517 128.556C12.8519 128.556 12.8521 128.556 12.8522 128.557C12.8524 128.557 12.8526 128.557 12.8527 128.558C12.8529 128.558 12.8531 128.558 12.8532 128.559C12.8534 128.559 12.8536 128.559 12.8537 128.56C12.8539 128.56 12.8541 128.56 12.8542 128.561C12.8544 128.561 12.8546 128.561 12.8547 128.562C12.8549 128.562 12.8551 128.562 12.8552 128.563C12.8554 128.563 12.8556 128.563 12.8557 128.564C12.8559 128.564 12.8561 128.564 12.8562 128.565C12.8564 128.565 12.8566 128.565 12.8567 128.566C12.8569 128.566 12.8571 128.566 12.8572 128.567C12.8574 128.567 12.8576 128.567 12.8577 128.568C12.8579 128.568 12.8581 128.568 12.8582 128.569C12.8584 128.569 12.8586 128.569 12.8587 128.57C12.8589 128.57 12.8591 128.57 12.8592 128.571C12.8594 128.571 12.8596 128.571 12.8597 128.572C12.8599 128.572 12.8601 128.572 12.8602 128.573C12.8604 128.573 12.8606 128.573 12.8607 128.574C12.8609 128.574 12.8611 128.574 12.8612 128.575C12.8614 128.575 12.8616 128.575 12.8617 128.576C12.8619 128.576 12.8621 128.576 12.8622 128.577C12.8624 128.577 12.8626 128.577 12.8627 128.578C12.8629 128.578 12.8631 128.578 12.8632 128.579C12.8634 128.579 12.8636 128.579 12.8637 128.58C12.8639 128.58 12.8641 128.58 12.8642 128.581C12.8644 128.581 12.8646 128.581 12.8647 128.582C12.8649 128.582 12.8651 128.582 12.8652 128.583C12.8654 128.583 12.8656 128.583 12.8657 128.584C12.8659 128.584 12.8661 128.584 12.8662 128.585C12.8664 128.585 12.8666 128.585 12.8667 128.586C12.8669 128.586 12.8671 128.586 12.8672 128.587C12.8674 128.587 12.8676 128.587 12.8677 128.588C12.8679 128.588 12.8681 128.588 12.8682 128.589C12.8684 128.589 12.8686 128.589 12.8687 128.59C12.8689 128.59 12.8691 128.59 12.8692 128.591C12.8694 128.591 12.8696 128.591 12.8697 128.592C12.8699 128.592 12.8701 128.592 12.8702 128.593C12.8704 128.593 12.8706 128.593 12.8707 128.594C12.8709 128.594 12.8711 128.594 12.8712 128.595C12.8714 128.595 12.8716 128.595 12.8717 128.596C12.8719 128.596 12.8721 128.596 12.8722 128.597C12.8724 128.597 12.8726 128.597 12.8727 128.598C12.8729 128.598 12.8731 128.598 12.8732 128.599C12.8734 128.599 12.8736 128.599 12.8737 128.6C12.8739 128.6 12.8741 128.6 12.8742 128.601C12.8744 128.601 12.8746 128.601 12.8747 128.602C12.8749 128.602 12.8751 128.602 12.8752 128.603C12.8754 128.603 12.8756 128.603 12.8757 128.604C12.8759 128.604 12.8761 128.604 12.8762 128.605C12.8764 128.605 12.8766 128.605 12.8767 128.606C12.8769 128.606 12.8771 128.606 12.8772 128.607C12.8774 128.607 12.8776 128.607 12.8777 128.608C12.8779 128.608 12.8781 128.608 12.8782 128.609C12.8784 128.609 12.8786 128.609 12.8787 128.61C12.8789 128.61 12.8791 128.61 12.8792 128.611C12.8794 128.611 12.8796 128.611 12.8797 128.612C12.8799 128.612 12.8801 128.612 12.8802 128.613C12.8804 128.613 12.8806 128.613 12.8807 128.614C12.8809 128.614 12.8811 128.614 12.8812 128.615C12.8814 128.615 12.8816 128.615 12.8817 128.616C12.8819 128.616 12.8821 128.616 12.8822 128.617C12.8824 128.617 12.8826 128.617 12.8827 128.618C12.8829 128.618 12.8831 128.618 12.8832 128.619C12.8834 128.619 12.8836 128.619 12.8837 128.62C12.8839 128.62 12.8841 128.62 12.8842 128.621C12.8844 128.621 12.8846 128.621 12.8847 128.622L18.2513 125.938ZM17.9953 125.426C17.5306 124.497 17.4045 122.635 19.1473 119.15L13.7807 116.466C11.7688 120.49 10.8747 124.602 12.6287 128.11L17.9953 125.426ZM19.1785 119.085C19.7592 117.851 20.3466 117.016 20.8893 116.473L16.6467 112.231C15.4827 113.395 14.5342 114.863 13.7495 116.531L19.1785 119.085ZM20.8893 116.473C21.0798 116.283 21.1994 116.217 21.2363 116.199C21.2612 116.187 21.2402 116.2 21.2 116.2V110.2C19.3489 110.2 17.8162 111.061 16.6467 112.231L20.8893 116.473ZM21.2 116.2C21.1259 116.2 20.9194 116.188 20.6536 116.069C20.3704 115.944 20.1262 115.744 19.952 115.512L24.752 111.912C23.8131 110.66 22.444 110.2 21.2 110.2V116.2ZM20.2307 115.833C21.5062 117.109 22.7999 118.186 24.0824 118.827L26.7656 113.461C26.3415 113.249 25.5872 112.705 24.4733 111.591L20.2307 115.833ZM24.0824 118.827C26.1068 119.84 28.1871 120.424 30.288 120.424V114.424C29.3169 114.424 28.1545 114.155 26.7656 113.461L24.0824 118.827ZM30.288 120.424C31.1239 120.424 32.1974 120.335 33.1656 119.851L30.4824 114.485C30.5741 114.439 30.6422 114.416 30.674 114.407C30.7061 114.397 30.714 114.397 30.6908 114.401C30.6681 114.405 30.6238 114.411 30.5543 114.416C30.4851 114.421 30.397 114.424 30.288 114.424V120.424ZM33.414 119.712C34.2596 119.184 34.919 118.393 35.4172 117.696C35.9545 116.943 36.4961 116.021 37.0438 114.972L31.7242 112.196C31.2479 113.109 30.8508 113.766 30.5348 114.208C30.1797 114.705 30.0711 114.726 30.234 114.624L33.414 119.712ZM37.0535 114.953C38.8735 111.404 40.7674 106.44 42.7493 100.15L37.0267 98.3465C35.0832 104.515 33.3079 109.108 31.7145 112.215L37.0535 114.953ZM42.7395 100.18C48.6023 82.2468 52.5725 64.2573 54.6444 46.2142L48.6836 45.5297C46.6595 63.156 42.779 80.7506 37.0365 98.3158L42.7395 100.18ZM54.6359 46.2819C54.8067 45.0434 54.9354 44.0994 55.0217 43.4525C55.0647 43.1301 55.098 42.8751 55.1208 42.6921C55.1321 42.6019 55.1421 42.5195 55.1497 42.4513C55.1533 42.4182 55.1578 42.3767 55.1617 42.3336C55.1617 42.3331 55.176 42.1931 55.176 42.032H49.176C49.176 41.9336 49.1812 41.8586 49.1821 41.8439C49.184 41.8166 49.1857 41.7971 49.1863 41.7904C49.1876 41.7767 49.188 41.7738 49.1864 41.7887C49.1833 41.8165 49.1772 41.8674 49.1672 41.9479C49.1474 42.1062 49.1167 42.3419 49.0743 42.6595C48.9899 43.2926 48.8626 44.2259 48.6921 45.4621L54.6359 46.2819ZM55.0944 42.7269C55.228 42.1657 55.8966 41.0532 58.3828 39.6547L55.4412 34.4253C52.4661 36.0988 49.9773 38.3143 49.2576 41.3371L55.0944 42.7269ZM58.3689 39.6625C58.9134 39.36 59.4116 39.1737 59.8668 39.0726L58.5652 33.2154C57.4844 33.4556 56.4466 33.8667 55.4551 34.4175L58.3689 39.6625ZM59.7092 39.1032L62.0132 38.7192L61.0268 32.8008L58.7228 33.1848L59.7092 39.1032ZM61.52 38.76C61.6598 38.76 61.768 38.7653 61.8483 38.7724C61.9295 38.7795 61.9707 38.7875 61.9794 38.7894C61.9892 38.7915 61.9481 38.7837 61.8721 38.7526C61.7959 38.7215 61.6652 38.6589 61.512 38.544L65.112 33.744C63.9408 32.8656 62.4795 32.76 61.52 32.76V38.76ZM61.6479 38.6401C61.7534 38.7105 61.8333 38.766 61.8915 38.808C61.9526 38.8522 61.9736 38.8698 61.9675 38.8647C61.9634 38.8613 61.9431 38.8443 61.9121 38.815C61.8836 38.7881 61.8254 38.7314 61.7542 38.6484C61.6914 38.575 61.5615 38.4158 61.4343 38.1826C61.3252 37.9826 61.08 37.4816 61.08 36.784H67.08C67.08 36.065 66.8268 35.5387 66.7017 35.3094C66.5585 35.0469 66.4046 34.8543 66.3098 34.7436C66.1195 34.5217 65.926 34.3532 65.8086 34.2553C65.5569 34.0456 65.2601 33.8372 64.9761 33.6478L61.6479 38.6401ZM61.4575 38.2409C61.6613 38.6077 62.0144 39.5678 62.4346 41.4169L68.2854 40.0871C67.8523 38.1816 67.3521 36.4963 66.7025 35.3271L61.4575 38.2409ZM62.476 41.5781C67.3647 58.6457 72.9828 75.3717 79.3306 91.7558L84.9254 89.5882C78.6438 73.375 73.0833 56.821 68.244 39.9259L62.476 41.5781ZM79.3333 91.7626C82.0791 98.7988 84.5063 104.441 86.6127 108.654L91.9793 105.97C89.9897 101.991 87.6382 96.5398 84.9227 89.5814L79.3333 91.7626ZM86.6127 108.654C87.8545 111.137 88.8364 113.037 89.5493 114.329C89.9007 114.966 90.2164 115.51 90.4826 115.916C90.6083 116.108 90.7767 116.353 90.9718 116.579C91.0637 116.685 91.2374 116.878 91.4804 117.068C91.6031 117.164 92.3106 117.736 93.392 117.736V111.736C94.4414 111.736 95.1083 112.288 95.1816 112.346C95.3752 112.498 95.491 112.632 95.5162 112.661C95.578 112.733 95.5784 112.745 95.5014 112.628C95.3622 112.416 95.134 112.031 94.8027 111.431C94.1503 110.248 93.2121 108.436 91.9793 105.97L86.6127 108.654ZM96.2766 115.56L96.7886 113.768L91.0194 112.12L90.5074 113.912L96.2766 115.56ZM96.8249 113.629C98.0878 108.24 101.312 96.2292 106.522 77.525L100.742 75.915C95.5412 94.5868 92.2802 106.726 90.9832 112.259L96.8249 113.629ZM106.512 77.5587C109.749 66.4419 112.499 57.5494 114.762 50.8662C117.051 44.1051 118.775 39.8145 119.941 37.745L114.715 34.799C113.236 37.4228 111.354 42.2202 109.078 48.9418C106.776 55.7413 104 64.7261 100.752 75.8813L106.512 77.5587ZM119.95 37.7289C120.706 36.3684 121.51 35.247 122.348 34.3388L117.94 30.2692C116.73 31.5796 115.656 33.1036 114.706 34.8151L119.95 37.7289ZM122.265 34.4253C126.865 29.8258 132.411 27.3113 139.041 26.8487L138.623 20.8633C130.575 21.4247 123.663 24.5422 118.023 30.1827L122.265 34.4253Z" fill="black" mask="url(#path-3-outside-1_0_1)"/>
</svg>
